<?xml version="1.0" encoding="UTF-8" standalone="no"?>
<svg
   id="Layer_2"
   data-name="Layer 2"
   viewBox="0 0 65 65"
   version="1.1"
   sodipodi:docname="3x3 lights.svg"
   inkscape:version="1.2.2 (732a01da63, 2022-12-09)"
   xmlns:inkscape="http://www.inkscape.org/namespaces/inkscape"
   xmlns:sodipodi="http://sodipodi.sourceforge.net/DTD/sodipodi-0.dtd"
   xmlns="http://www.w3.org/2000/svg"
   xmlns:svg="http://www.w3.org/2000/svg">
  <sodipodi:namedview
     id="namedview56"
     pagecolor="#ffffff"
     bordercolor="#000000"
     borderopacity="0.25"
     inkscape:showpageshadow="2"
     inkscape:pageopacity="0.0"
     inkscape:pagecheckerboard="0"
     inkscape:deskcolor="#d1d1d1"
     showgrid="false"
     inkscape:zoom="12.815385"
     inkscape:cx="31.797719"
     inkscape:cy="32.539016"
     inkscape:window-width="1920"
     inkscape:window-height="991"
     inkscape:window-x="2551"
     inkscape:window-y="155"
     inkscape:window-maximized="1"
     inkscape:current-layer="Layer_2" />
  <defs
     id="defs32">
    <style
       id="style30">
      .cls-1 {
        fill: #ecc76a;
      }

      .cls-2 {
        fill: #bd332b;
      }
    </style>
  </defs>
  <g
     id="Layer_1-2"
     data-name="Layer 1">
    <g
       id="g52">
      <path
         class="cls-2"
         d="m50.96,14.04v36.92H14.04V14.04h36.92M65,0H0v65h65V0h0Z"
         id="path34" />
      <circle
         class="cls-1"
         cx="6.91"
         cy="6.86"
         r="4.74"
         id="circle36"
         style="fill:#ffbb15;fill-opacity:1" />
      <circle
         class="cls-1"
         cx="6.91"
         cy="32.77"
         r="4.74"
         id="circle38"
         style="fill:#ffbb15;fill-opacity:1" />
      <circle
         class="cls-1"
         cx="6.91"
         cy="58.08"
         r="4.74"
         id="circle40"
         style="fill:#ffbb15;fill-opacity:1" />
      <circle
         class="cls-1"
         cx="57.82"
         cy="6.86"
         r="4.74"
         id="circle42"
         style="fill:#ffbb15;fill-opacity:1" />
      <circle
         class="cls-1"
         cx="57.82"
         cy="32.77"
         r="4.74"
         id="circle44"
         style="fill:#ffbb15;fill-opacity:1" />
      <circle
         class="cls-1"
         cx="57.82"
         cy="58.08"
         r="4.74"
         id="circle46"
         style="fill:#ffbb15;fill-opacity:1" />
      <circle
         class="cls-1"
         cx="31.93"
         cy="6.86"
         r="4.74"
         id="circle48"
         style="fill:#ffbb15;fill-opacity:1" />
      <circle
         class="cls-1"
         cx="31.93"
         cy="58.08"
         r="4.74"
         id="circle50"
         style="fill:#ffbb15;fill-opacity:1" />
    </g>
  </g>
  <path
     style="fill:#ffff00;fill-opacity:1;stroke-width:0.0780312"
     d="M 5.8314858,62.654066 C 4.8966942,62.427563 3.840219,61.762253 3.270176,61.041095 2.5549974,60.136326 2.2301935,59.200514 2.2338317,58.055222 c 0.0021,-0.6607 0.038127,-0.882511 0.2350378,-1.447024 0.4151091,-1.190055 1.1919392,-2.105661 2.2648637,-2.669467 0.7305472,-0.383892 1.3184618,-0.526366 2.1720291,-0.526366 1.312856,0 2.3676813,0.436019 3.2823997,1.356802 1.512924,1.522954 1.834036,3.497682 0.882549,5.427382 -0.941568,1.909585 -3.1756807,2.95752 -5.2392252,2.457517 z"
     id="path6248" />
  <path
     style="fill:#ffff00;fill-opacity:1;stroke-width:0.0780312"
     d="m 30.760038,62.618319 c -0.846884,-0.221869 -1.457613,-0.580247 -2.123359,-1.245994 -0.675402,-0.675401 -1.026026,-1.279808 -1.24964,-2.154127 -0.271177,-1.060292 -0.178292,-2.067777 0.28282,-3.067634 0.599205,-1.299291 1.758051,-2.275355 3.110341,-2.619755 0.588313,-0.14983 1.746015,-0.151101 2.305034,-0.0025 1.639347,0.43569 2.9598,1.756144 3.395491,3.395491 0.148684,0.559443 0.147267,1.717149 -0.0028,2.305034 -0.638625,2.50146 -3.234312,4.040166 -5.717867,3.389515 z"
     id="path6250" />
  <path
     style="fill:#ffff00;fill-opacity:1;stroke-width:0.0780312"
     d="m 56.92377,62.701523 c -1.772507,-0.385085 -3.263475,-1.821947 -3.667155,-3.534078 -0.149201,-0.632807 -0.148586,-1.620386 0.0014,-2.207773 0.666725,-2.611524 3.415562,-4.153782 5.96694,-3.347802 1.933114,0.61067 3.278072,2.422873 3.278072,4.41689 0,0.819202 -0.113714,1.312871 -0.478343,2.076633 -0.536094,1.122917 -1.481099,1.967602 -2.702088,2.415239 -0.579933,0.212614 -1.821748,0.306257 -2.3988,0.180891 z"
     id="path6252" />
  <path
     style="fill:#ffff00;fill-opacity:1;stroke-width:0.0780312"
     d="m 57.053148,37.41125 c -2.235094,-0.397306 -3.913892,-2.375409 -3.913892,-4.611679 0,-0.814527 0.113646,-1.312927 0.468648,-2.055273 0.551674,-1.153607 1.549645,-2.030518 2.769647,-2.433671 0.889288,-0.293868 1.997867,-0.293868 2.887155,0 1.932576,0.638625 3.238295,2.43795 3.238295,4.462482 0,2.072694 -1.402988,3.923157 -3.425009,4.517396 -0.540192,0.158753 -1.491793,0.215499 -2.024844,0.120745 z"
     id="path6254" />
  <path
     style="fill:#ffff00;fill-opacity:1;stroke-width:0.0780312"
     d="M 57.150225,11.513881 C 54.86921,11.156238 53.139256,9.1633148 53.139256,6.8932088 c 0,-0.8220275 0.113811,-1.3131023 0.483975,-2.088269 0.988708,-2.0704668 3.474806,-3.1386403 5.626907,-2.417649 0.750956,0.2515834 1.29271,0.5954682 1.896712,1.2039604 0.892416,0.8990509 1.356151,2.019105 1.356151,3.2754955 0,2.4629383 -1.927043,4.5053353 -4.408763,4.6726733 -0.30042,0.02026 -0.725226,0.0088 -0.944013,-0.02554 z"
     id="path6256" />
  <path
     style="fill:#ffff00;fill-opacity:1;stroke-width:0.0780312"
     d="M 31.243862,11.51431 C 30.672473,11.42411 30.305948,11.295925 29.729892,10.984849 28.175998,10.145732 27.2352,8.5927139 27.2352,6.8667467 c 0,-1.9035238 1.194745,-3.6587089 2.962879,-4.3527277 1.319059,-0.51775 2.515401,-0.4717433 3.80906,0.146482 0.466671,0.2230167 0.738181,0.4270762 1.223953,0.919888 0.667842,0.6775207 1.032854,1.3005578 1.249711,2.1331254 0.149994,0.5758671 0.148279,1.7371835 -0.0034,2.3196195 -0.271272,1.0414829 -1.060745,2.1424561 -1.968207,2.7447951 -0.880304,0.584312 -2.259041,0.89524 -3.265307,0.736381 z"
     id="path6258" />
  <path
     style="fill:#ffff00;fill-opacity:1;stroke-width:0.0780312"
     d="M 6.2240337,11.511728 C 4.30894,11.164989 2.7776647,9.752117 2.3314903,7.9201681 2.1567886,7.2028599 2.2049767,6.1053642 2.4405601,5.4360753 3.1031476,3.5536741 4.6938267,2.3157048 6.6326531,2.1735172 8.4234218,2.0421877 10.274652,3.1104887 11.076989,4.7382376 11.774131,6.152574 11.789964,7.551024 11.124055,8.8955582 10.505994,10.143483 9.3173197,11.112999 8.0282087,11.42062 7.5044651,11.545601 6.6495641,11.588772 6.2240337,11.51173 Z"
     id="path6260" />
  <path
     style="fill:#ffff00;fill-opacity:1;stroke-width:0.0780312"
     d="M 6.1526906,37.415007 C 5.1704383,37.260128 4.255446,36.751973 3.4814421,35.931488 1.4314201,33.758357 1.9402603,30.306724 4.5427222,28.732472 c 2.7265358,-1.649305 6.3110298,-0.03433 6.9766068,3.143278 0.563752,2.691474 -1.5316303,5.403911 -4.3038401,5.571247 -0.3420183,0.02065 -0.8202775,0.0062 -1.0627983,-0.03199 z"
     id="path6262" />
</svg>
