<?xml version="1.0" encoding="UTF-8" standalone="no"?>
<svg
   id="Layer_2"
   data-name="Layer 2"
   viewBox="0 0 65 65"
   version="1.1"
   sodipodi:docname="3x3 lights1.svg"
   inkscape:version="1.2.2 (732a01da63, 2022-12-09)"
   xmlns:inkscape="http://www.inkscape.org/namespaces/inkscape"
   xmlns:sodipodi="http://sodipodi.sourceforge.net/DTD/sodipodi-0.dtd"
   xmlns="http://www.w3.org/2000/svg"
   xmlns:svg="http://www.w3.org/2000/svg">
  <sodipodi:namedview
     id="namedview56"
     pagecolor="#ffffff"
     bordercolor="#000000"
     borderopacity="0.25"
     inkscape:showpageshadow="2"
     inkscape:pageopacity="0.0"
     inkscape:pagecheckerboard="0"
     inkscape:deskcolor="#d1d1d1"
     showgrid="false"
     inkscape:zoom="12.815385"
     inkscape:cx="31.797719"
     inkscape:cy="32.539016"
     inkscape:window-width="1920"
     inkscape:window-height="991"
     inkscape:window-x="2551"
     inkscape:window-y="155"
     inkscape:window-maximized="1"
     inkscape:current-layer="Layer_2" />
  <defs
     id="defs32">
    <style
       id="style30">
      .cls-1 {
        fill: #ecc76a;
      }

      .cls-2 {
        fill: #bd332b;
      }
    </style>
  </defs>
  <g
     id="Layer_1-2"
     data-name="Layer 1">
    <g
       id="g52">
      <path
         class="cls-2"
         d="m50.96,14.04v36.92H14.04V14.04h36.92M65,0H0v65h65V0h0Z"
         id="path34" />
      <circle
         class="cls-1"
         cx="6.91"
         cy="6.86"
         r="4.74"
         id="circle36" />
      <circle
         class="cls-1"
         cx="6.91"
         cy="32.77"
         r="4.74"
         id="circle38" />
      <circle
         class="cls-1"
         cx="6.91"
         cy="58.08"
         r="4.74"
         id="circle40" />
      <circle
         class="cls-1"
         cx="57.82"
         cy="6.86"
         r="4.74"
         id="circle42" />
      <circle
         class="cls-1"
         cx="57.82"
         cy="32.77"
         r="4.74"
         id="circle44" />
      <circle
         class="cls-1"
         cx="57.82"
         cy="58.08"
         r="4.74"
         id="circle46" />
      <circle
         class="cls-1"
         cx="31.93"
         cy="6.86"
         r="4.74"
         id="circle48" />
      <circle
         class="cls-1"
         cx="31.93"
         cy="58.08"
         r="4.74"
         id="circle50" />
    </g>
  </g>
  <path
     style="fill:#ffff00;fill-opacity:1;stroke-width:0.0780312"
     d="M 6.1526906,37.415007 C 5.1704383,37.260128 4.255446,36.751973 3.4814421,35.931488 1.4314201,33.758357 1.9402603,30.306724 4.5427222,28.732472 c 2.7265358,-1.649305 6.3110298,-0.03433 6.9766068,3.143278 0.563752,2.691474 -1.5316303,5.403911 -4.3038401,5.571247 -0.3420183,0.02065 -0.8202775,0.0062 -1.0627983,-0.03199 z"
     id="path10670" />
  <path
     style="fill:#ffff00;fill-opacity:1;stroke-width:0.0780312"
     d="M 31.243862,11.51431 C 30.672473,11.42411 30.305948,11.295925 29.729892,10.984849 28.175998,10.145732 27.2352,8.5927139 27.2352,6.8667467 c 0,-1.9035238 1.194745,-3.6587089 2.962879,-4.3527277 1.319059,-0.51775 2.515401,-0.4717433 3.80906,0.146482 0.466671,0.2230167 0.738181,0.4270762 1.223953,0.919888 0.667842,0.6775207 1.032854,1.3005578 1.249711,2.1331254 0.149994,0.5758671 0.148279,1.7371835 -0.0034,2.3196195 -0.271272,1.0414829 -1.060745,2.1424561 -1.968207,2.7447951 -0.880304,0.584312 -2.259041,0.89524 -3.265307,0.736381 z"
     id="path10672" />
  <path
     style="fill:#ffff00;fill-opacity:1;stroke-width:0.0780312"
     d="m 57.053148,37.41125 c -2.235094,-0.397306 -3.913892,-2.375409 -3.913892,-4.611679 0,-0.814527 0.113646,-1.312927 0.468648,-2.055273 0.551674,-1.153607 1.549645,-2.030518 2.769647,-2.433671 0.889288,-0.293868 1.997867,-0.293868 2.887155,0 1.932576,0.638625 3.238295,2.43795 3.238295,4.462482 0,2.072694 -1.402988,3.923157 -3.425009,4.517396 -0.540192,0.158753 -1.491793,0.215499 -2.024844,0.120745 z"
     id="path10674" />
  <path
     style="fill:#ffff00;fill-opacity:1;stroke-width:0.0780312"
     d="m 30.760038,62.618319 c -0.846884,-0.221869 -1.457613,-0.580247 -2.123359,-1.245994 -0.675402,-0.675401 -1.026026,-1.279808 -1.24964,-2.154127 -0.271177,-1.060292 -0.178292,-2.067777 0.28282,-3.067634 0.599205,-1.299291 1.758051,-2.275355 3.110341,-2.619755 0.588313,-0.14983 1.746015,-0.151101 2.305034,-0.0025 1.639347,0.43569 2.9598,1.756144 3.395491,3.395491 0.148684,0.559443 0.147267,1.717149 -0.0028,2.305034 -0.638625,2.50146 -3.234312,4.040166 -5.717867,3.389515 z"
     id="path10676" />
</svg>
