<?xml version="1.0" encoding="UTF-8"?>
<svg id="Layer_2" data-name="Layer 2" xmlns="http://www.w3.org/2000/svg" xmlns:xlink="http://www.w3.org/1999/xlink" viewBox="0 0 1542.57 5571.66">
  <defs>
    <style>
      .cls-1 {
        fill: none;
      }

      .cls-2 {
        clip-path: url(#clippath);
      }

      .cls-3 {
        fill: #fbf7d0;
      }

      .cls-4 {
        fill: #fbde96;
      }

      .cls-5 {
        fill: #faf0bb;
      }
    </style>
    <clipPath id="clippath">
      <rect class="cls-1" x="42.44" y="0" width="1440" height="5500"/>
    </clipPath>
  </defs>
  <g id="Layer_1-2" data-name="Layer 1">
    <g class="cls-2">
      <g>
        <path class="cls-3" d="m756.79,4966.42s8.69-21.68,31.49-2.39c0,0,20.83-47.68,56.79-32.45,35.96,15.23,27.89,32.6,27.89,32.6,0,0-1.87,5.18,9.14,4.65,11.01-.53,43.61,15.28,42.64,65.41,0,0-4.01,4.86,8.76,14.43s30.62,36.29,18.86,56.38l-38.26,7.37-27.2-.8-22.39.56-25.81-14.35-15.76-18.76-21.22-26.13-16.25-37.41-16.94-25.49-11.76-23.62Z"/>
        <path class="cls-5" d="m831.92,5062.94s-1.89,20.58,23.66,32.01c25.55,11.43,54.09-3.96,63.92-11.23,0,0,24.95,13.04,36.5,3.02,0,0,12.51,27.28-33.18,47.75,0,0-22.45,10.77-41.95-15.62,0,0-15.33,33.25-45.53,23.26-30.19-9.99-30.03-32.92-30.03-32.92,0,0-15.28-.11-25.54-19.13-10.26-19.02-.11-28.43,6.04-32.97,0,0-31.74-6.95-45.58-38.53-13.84-31.58,9.14-39.06,9.14-39.06,0,0,3.45-2.51,4.35-4.14.89-1.63,2.16-12.77,8.93-16.47,6.77-3.7.57,8.48,4.2,13.4,3.63,4.92,7.8,20.84,19.4,23.67,11.6,2.83,15.92,39.55,18.65,43.23s9.03,19.93,27.04,23.73Z"/>
        <path class="cls-4" d="m800.5,5010.14s42.7,14.06,46.38,55.04c0,0-.19,3.52,3.72,1.79,3.92-1.73,26.8,1.43,36.25,30.44,5.24,16.09,55.1-32.17,24.69-55.31,0,0-10.79-8.18-31.1-11.22-12.46-1.87-4.54-6.15-12.4-19.35-3.91-6.57-10.9-14.75-24.64-17.9-13.73-3.15-31.16-3.58-42.91,16.51Z"/>
      </g>
      <g>
        <path class="cls-3" d="m1341.79,5336.42s8.69-21.68,31.49-2.39c0,0,20.83-47.68,56.79-32.45,35.96,15.23,27.89,32.6,27.89,32.6,0,0-1.87,5.18,9.14,4.65,11.01-.53,43.61,15.28,42.64,65.41,0,0-4.01,4.86,8.76,14.43,12.77,9.57,30.62,36.29,18.86,56.38l-38.26,7.37-27.2-.8-22.39.56-25.81-14.35-15.76-18.76-21.22-26.13-16.25-37.41-16.94-25.49-11.76-23.62Z"/>
        <path class="cls-5" d="m1416.92,5432.94s-1.89,20.58,23.66,32.01c25.55,11.43,54.09-3.96,63.92-11.23,0,0,24.95,13.04,36.5,3.02,0,0,12.51,27.28-33.18,47.75,0,0-22.45,10.77-41.95-15.62,0,0-15.33,33.25-45.53,23.26-30.19-9.99-30.03-32.92-30.03-32.92,0,0-15.28-.11-25.54-19.13-10.26-19.02-.11-28.43,6.04-32.97,0,0-31.74-6.95-45.58-38.53-13.84-31.58,9.14-39.06,9.14-39.06,0,0,3.45-2.51,4.35-4.14.89-1.63,2.16-12.77,8.93-16.47,6.77-3.7.57,8.48,4.2,13.4,3.63,4.92,7.8,20.84,19.4,23.67,11.6,2.83,15.92,39.55,18.65,43.23s9.03,19.93,27.04,23.73Z"/>
        <path class="cls-4" d="m1385.5,5380.14s42.7,14.06,46.38,55.04c0,0-.19,3.52,3.72,1.79,3.92-1.73,26.8,1.43,36.25,30.44,5.24,16.09,55.1-32.17,24.69-55.31,0,0-10.79-8.18-31.1-11.22-12.46-1.87-4.54-6.15-12.4-19.35-3.91-6.57-10.9-14.75-24.64-17.9-13.73-3.15-31.16-3.58-42.91,16.51Z"/>
      </g>
      <g>
        <path class="cls-3" d="m1304.25,5061.84s-12.27-19.87,16.79-26.75c0,0-25.96-45.09,7.66-64.96,33.62-19.87,42.8-3.06,42.8-3.06,0,0,3.06,4.59,9.17-4.59,6.11-9.17,38.21-25.98,77.95,4.59,0,0,1.53,6.11,16.81,1.53,15.28-4.59,47.38-3.06,56.55,18.34l-16.81,35.15-16.81,21.4-12.86,18.34-26.88,12.23-24.45,1.53-33.62,1.53-39.74-9.17-30.57-1.53-25.98-4.59Z"/>
        <path class="cls-5" d="m1426.52,5058.78s15.43,13.76,39.81,0c24.38-13.76,28.97-45.85,28.97-58.08,0,0,25.31-12.31,24.12-27.55,0,0,29.37,6.16,18.67,55.07,0,0-4.68,24.45-37.5,24.45,0,0,17.63,32.1-8.36,50.44-25.98,18.34-44.32,4.59-44.32,4.59,0,0-9.17,12.23-30.57,9.17-21.4-3.06-22.93-16.81-22.93-24.45,0,0-24.45,21.4-58.08,13.76-33.62-7.64-25.98-30.57-25.98-30.57,0,0,.04-4.27-.75-5.95-.78-1.69-8.98-9.33-7.94-16.97,1.04-7.64,7.16,4.59,13.27,4.59s21.4,6.11,30.57-1.53c9.17-7.64,41.27,10.7,45.85,10.7s21.4,4.59,35.15-7.64Z"/>
        <path class="cls-4" d="m1365.39,5052.67s36.68-25.98,71.83-4.59c0,0,2.71,2.25,3.65-1.93.94-4.18,17.08-20.71,46.02-11.06,16.05,5.35,6.88-63.43-29.8-52.73,0,0-12.99,3.82-27.51,18.34-8.91,8.91-7.64,0-22.93-1.53-7.6-.76-18.34,0-29.04,9.17-10.7,9.17-21.4,22.93-12.23,44.32Z"/>
      </g>
      <g>
        <path class="cls-3" d="m249.25,5065.84s-12.27-19.87,16.79-26.75c0,0-25.96-45.09,7.66-64.96,33.62-19.87,42.8-3.06,42.8-3.06,0,0,3.06,4.59,9.17-4.59,6.11-9.17,38.21-25.98,77.95,4.59,0,0,1.53,6.11,16.81,1.53,15.28-4.59,47.38-3.06,56.55,18.34l-16.81,35.15-16.81,21.4-12.86,18.34-26.88,12.23-24.45,1.53-33.62,1.53-39.74-9.17-30.57-1.53-25.98-4.59Z"/>
        <path class="cls-5" d="m371.52,5062.78s15.43,13.76,39.81,0c24.38-13.76,28.97-45.85,28.97-58.08,0,0,25.31-12.31,24.12-27.55,0,0,29.37,6.16,18.67,55.07,0,0-4.68,24.45-37.5,24.45,0,0,17.63,32.1-8.36,50.44-25.98,18.34-44.32,4.59-44.32,4.59,0,0-9.17,12.23-30.57,9.17-21.4-3.06-22.93-16.81-22.93-24.45,0,0-24.45,21.4-58.08,13.76-33.62-7.64-25.98-30.57-25.98-30.57,0,0,.04-4.27-.75-5.95-.78-1.69-8.98-9.33-7.94-16.97,1.04-7.64,7.16,4.59,13.27,4.59s21.4,6.11,30.57-1.53c9.17-7.64,41.27,10.7,45.85,10.7s21.4,4.59,35.15-7.64Z"/>
        <path class="cls-4" d="m310.39,5056.67s36.68-25.98,71.83-4.59c0,0,2.71,2.25,3.65-1.93.94-4.18,17.08-20.71,46.02-11.06,16.05,5.35,6.88-63.43-29.8-52.73,0,0-12.99,3.82-27.51,18.34-8.91,8.91-7.64,0-22.93-1.53-7.6-.76-18.34,0-29.04,9.17-10.7,9.17-21.4,22.93-12.23,44.32Z"/>
      </g>
      <g>
        <path class="cls-3" d="m1142.81,3350.4s8.69-21.67,31.49-2.38c0,0,20.84-47.67,56.8-32.43,35.96,15.24,27.88,32.61,27.88,32.61,0,0-1.87,5.18,9.14,4.65,11.01-.53,43.6,15.3,42.62,65.42,0,0-4.01,4.86,8.76,14.43s30.61,36.3,18.85,56.38l-38.26,7.36-27.2-.81-22.39.56-25.81-14.36-15.76-18.76-21.21-26.14-16.23-37.41-16.93-25.5-11.75-23.62Z"/>
        <path class="cls-5" d="m1217.91,3446.93s-1.9,20.58,23.65,32.02c25.55,11.44,54.09-3.94,63.93-11.21,0,0,24.94,13.05,36.49,3.03,0,0,12.5,27.28-33.2,47.74,0,0-22.45,10.76-41.95-15.63,0,0-15.35,33.25-45.54,23.24-30.19-10-30.02-32.93-30.02-32.93,0,0-15.28-.11-25.54-19.14-10.25-19.03-.1-28.43,6.05-32.97,0,0-31.74-6.96-45.57-38.54-13.83-31.59,9.15-39.06,9.15-39.06,0,0,3.45-2.51,4.35-4.14.89-1.63,2.17-12.77,8.93-16.47,6.77-3.7.56,8.48,4.2,13.4s7.8,20.84,19.39,23.68c11.6,2.84,15.91,39.55,18.64,43.24s9.02,19.94,27.03,23.74Z"/>
        <path class="cls-4" d="m1186.51,3394.12s42.69,14.07,46.37,55.06c0,0-.2,3.52,3.72,1.79,3.92-1.73,26.8,1.43,36.24,30.45,5.23,16.09,55.11-32.15,24.71-55.3,0,0-10.79-8.18-31.1-11.23-12.46-1.87-4.54-6.15-12.39-19.35-3.91-6.57-10.9-14.75-24.63-17.91s-31.15-3.59-42.92,16.5Z"/>
      </g>
      <g>
        <path class="cls-3" d="m188.59,3952.43s7.58-19.08,27.7-2c0,0,18.19-41.97,49.87-28.41,31.69,13.56,24.64,28.84,24.64,28.84,0,0-1.63,4.56,8.05,4.13,9.68-.43,38.41,13.63,37.71,57.83,0,0-3.51,4.27,7.75,12.75,11.27,8.48,27.05,32.11,16.76,49.78l-33.64,6.37-23.94-.8-19.7.42-22.75-12.75-13.93-16.6-18.74-23.12-14.4-33.04-14.98-22.54-10.41-20.87Z"/>
        <path class="cls-5" d="m254.98,4037.8s-1.6,18.14,20.91,28.31c22.52,10.17,47.58-3.3,56.21-9.68,0,0,21.99,11.59,32.12,2.79,0,0,11.09,24.1-29.06,41.99,0,0-19.72,9.42-36.96-13.92,0,0-13.39,29.27-39.99,20.35-26.6-8.92-26.52-29.13-26.52-29.13,0,0-13.45-.15-22.53-16.96-9.08-16.81-.18-25.07,5.22-29.05,0,0-27.95-6.24-40.22-34.14-12.27-27.9,7.93-34.42,7.93-34.42,0,0,3.03-2.2,3.81-3.64.78-1.44,1.87-11.25,7.81-14.49,5.94-3.24.52,7.48,3.73,11.83s6.93,18.41,17.14,20.94c10.21,2.54,14.13,34.93,16.54,38.19s8,17.61,23.86,21.02Z"/>
        <path class="cls-4" d="m227.18,3991.13s37.61,12.54,40.97,48.7c0,0-.16,3.1,3.28,1.59,3.44-1.51,23.59,1.35,31.98,26.97,4.65,14.2,48.38-28.18,21.56-48.69,0,0-9.52-7.25-27.4-10.01-10.97-1.69-4.01-5.44-10.97-17.1-3.46-5.8-9.64-13.04-21.73-15.87s-27.42-3.27-37.71,14.41Z"/>
      </g>
      <g>
        <path class="cls-3" d="m245.25,3566.84s-12.27-19.87,16.79-26.75c0,0-25.96-45.09,7.66-64.96,33.62-19.87,42.8-3.06,42.8-3.06,0,0,3.06,4.59,9.17-4.59,6.11-9.17,38.21-25.98,77.95,4.59,0,0,1.53,6.11,16.81,1.53,15.28-4.59,47.38-3.06,56.55,18.34l-16.81,35.15-16.81,21.4-12.86,18.34-26.88,12.23-24.45,1.53-33.62,1.53-39.74-9.17-30.57-1.53-25.98-4.59Z"/>
        <path class="cls-5" d="m367.52,3563.78s15.43,13.76,39.81,0c24.38-13.76,28.97-45.85,28.97-58.08,0,0,25.31-12.31,24.12-27.55,0,0,29.37,6.16,18.67,55.07,0,0-4.68,24.45-37.5,24.45,0,0,17.63,32.1-8.36,50.44-25.98,18.34-44.32,4.59-44.32,4.59,0,0-9.17,12.23-30.57,9.17-21.4-3.06-22.93-16.81-22.93-24.45,0,0-24.45,21.4-58.08,13.76-33.62-7.64-25.98-30.57-25.98-30.57,0,0,.04-4.27-.75-5.95-.78-1.69-8.98-9.33-7.94-16.97,1.04-7.64,7.16,4.59,13.27,4.59s21.4,6.11,30.57-1.53c9.17-7.64,41.27,10.7,45.85,10.7s21.4,4.59,35.15-7.64Z"/>
        <path class="cls-4" d="m306.39,3557.67s36.68-25.98,71.83-4.59c0,0,2.71,2.25,3.65-1.93.94-4.18,17.08-20.71,46.02-11.06,16.05,5.35,6.88-63.43-29.8-52.73,0,0-12.99,3.82-27.51,18.34-8.91,8.91-7.64,0-22.93-1.53-7.6-.76-18.34,0-29.04,9.17-10.7,9.17-21.4,22.93-12.23,44.32Z"/>
      </g>
      <g>
        <path class="cls-3" d="m780.25,2439.84s-12.27-19.87,16.79-26.75c0,0-25.96-45.09,7.66-64.96,33.62-19.87,42.8-3.06,42.8-3.06,0,0,3.06,4.59,9.17-4.59,6.11-9.17,38.21-25.98,77.95,4.59,0,0,1.53,6.11,16.81,1.53,15.28-4.59,47.38-3.06,56.55,18.34l-16.81,35.15-16.81,21.4-12.86,18.34-26.88,12.23-24.45,1.53-33.62,1.53-39.74-9.17-30.57-1.53-25.98-4.59Z"/>
        <path class="cls-5" d="m902.52,2436.78s15.43,13.76,39.81,0c24.38-13.76,28.97-45.85,28.97-58.08,0,0,25.31-12.31,24.12-27.55,0,0,29.37,6.16,18.67,55.07,0,0-4.68,24.45-37.5,24.45,0,0,17.63,32.1-8.36,50.44-25.98,18.34-44.32,4.59-44.32,4.59,0,0-9.17,12.23-30.57,9.17-21.4-3.06-22.93-16.81-22.93-24.45,0,0-24.45,21.4-58.08,13.76-33.62-7.64-25.98-30.57-25.98-30.57,0,0,.04-4.27-.75-5.95-.78-1.69-8.98-9.33-7.94-16.97,1.04-7.64,7.16,4.59,13.27,4.59s21.4,6.11,30.57-1.53c9.17-7.64,41.27,10.7,45.85,10.7s21.4,4.59,35.15-7.64Z"/>
        <path class="cls-4" d="m841.39,2430.67s36.68-25.98,71.83-4.59c0,0,2.71,2.25,3.65-1.93.94-4.18,17.08-20.71,46.02-11.06,16.05,5.35,6.88-63.43-29.8-52.73,0,0-12.99,3.82-27.51,18.34-8.91,8.91-7.64,0-22.93-1.53-7.6-.76-18.34,0-29.04,9.17-10.7,9.17-21.4,22.93-12.23,44.32Z"/>
      </g>
      <g>
        <path class="cls-3" d="m1084.25,1722.84s-12.27-19.87,16.79-26.75c0,0-25.96-45.09,7.66-64.96,33.62-19.87,42.8-3.06,42.8-3.06,0,0,3.06,4.59,9.17-4.59,6.11-9.17,38.21-25.98,77.95,4.59,0,0,1.53,6.11,16.81,1.53,15.28-4.59,47.38-3.06,56.55,18.34l-16.81,35.15-16.81,21.4-12.86,18.34-26.88,12.23-24.45,1.53-33.62,1.53-39.74-9.17-30.57-1.53-25.98-4.59Z"/>
        <path class="cls-5" d="m1206.52,1719.78s15.43,13.76,39.81,0c24.38-13.76,28.97-45.85,28.97-58.08,0,0,25.31-12.31,24.12-27.55,0,0,29.37,6.16,18.67,55.07,0,0-4.68,24.45-37.5,24.45,0,0,17.63,32.1-8.36,50.44-25.98,18.34-44.32,4.59-44.32,4.59,0,0-9.17,12.23-30.57,9.17-21.4-3.06-22.93-16.81-22.93-24.45,0,0-24.45,21.4-58.08,13.76-33.62-7.64-25.98-30.57-25.98-30.57,0,0,.04-4.27-.75-5.95-.78-1.69-8.98-9.33-7.94-16.97,1.04-7.64,7.16,4.59,13.27,4.59s21.4,6.11,30.57-1.53c9.17-7.64,41.27,10.7,45.85,10.7s21.4,4.59,35.15-7.64Z"/>
        <path class="cls-4" d="m1145.39,1713.67s36.68-25.98,71.83-4.59c0,0,2.71,2.25,3.65-1.93.94-4.18,17.08-20.71,46.02-11.06,16.05,5.35,6.88-63.43-29.8-52.73,0,0-12.99,3.82-27.51,18.34-8.91,8.91-7.64,0-22.93-1.53-7.6-.76-18.34,0-29.04,9.17-10.7,9.17-21.4,22.93-12.23,44.32Z"/>
      </g>
      <g>
        <path class="cls-3" d="m154.25,159.84s-12.27-19.87,16.79-26.75c0,0-25.96-45.09,7.66-64.96,33.62-19.87,42.8-3.06,42.8-3.06,0,0,3.06,4.59,9.17-4.59,6.11-9.17,38.21-25.98,77.95,4.59,0,0,1.53,6.11,16.81,1.53,15.28-4.59,47.38-3.06,56.55,18.34l-16.81,35.15-16.81,21.4-12.86,18.34-26.88,12.23-24.45,1.53-33.62,1.53-39.74-9.17-30.57-1.53-25.98-4.59Z"/>
        <path class="cls-5" d="m276.52,156.78s15.43,13.76,39.81,0c24.38-13.76,28.97-45.85,28.97-58.08,0,0,25.31-12.31,24.12-27.55,0,0,29.37,6.16,18.67,55.07,0,0-4.68,24.45-37.5,24.45,0,0,17.63,32.1-8.36,50.44-25.98,18.34-44.32,4.59-44.32,4.59,0,0-9.17,12.23-30.57,9.17-21.4-3.06-22.93-16.81-22.93-24.45,0,0-24.45,21.4-58.08,13.76-33.62-7.64-25.98-30.57-25.98-30.57,0,0,.04-4.27-.75-5.95-.78-1.69-8.98-9.33-7.94-16.97,1.04-7.64,7.16,4.59,13.27,4.59s21.4,6.11,30.57-1.53c9.17-7.64,41.27,10.7,45.85,10.7s21.4,4.59,35.15-7.64Z"/>
        <path class="cls-4" d="m215.39,150.67s36.68-25.98,71.83-4.59c0,0,2.71,2.25,3.65-1.93.94-4.18,17.08-20.71,46.02-11.06,16.05,5.35,6.88-63.43-29.8-52.73,0,0-12.99,3.82-27.51,18.34-8.91,8.91-7.64,0-22.93-1.53-7.6-.76-18.34,0-29.04,9.17-10.7,9.17-21.4,22.93-12.23,44.32Z"/>
      </g>
      <g>
        <path class="cls-3" d="m857.48,4509.71s-18.57,1.96-13.45-21.37c0,0-41.48,3.08-44.15-28.03-2.67-31.11,12.62-31.89,12.62-31.89,0,0,4.36-.61-.13-8.2s-5.48-36.53,30.31-54.58c0,0,4.93,1.02,6.93-11.58,1.99-12.6,14.21-35.2,32.81-34.39l19.5,24.29,9.59,19.53,8.76,15.62-.5,23.61-7.37,18.15-10.55,24.76-20.38,25.46-11.69,21.5-12.31,17.13Z"/>
        <path class="cls-5" d="m897.64,4420.55s15.26-6.35,13.79-28.68c-1.46-22.33-23-36.76-31.81-40.99,0,0-.1-22.51-11.5-26.93,0,0,14.61-19.03,46.15,5.62,0,0,16,11.85,4.63,35.49,0,0,29.23-1.58,33.45,23.5,4.21,25.08-12.05,33.52-12.05,33.52,0,0,5.63,10.84-3.98,25.2-9.62,14.36-20.06,10.69-25.56,8.05,0,0,6.94,25.03-10.21,46.61-17.16,21.58-31.03,8.13-31.03,8.13,0,0-3.06-1.5-4.55-1.53-1.49-.02-9.83,3.24-14.98-.16-5.14-3.4,5.78-3.57,7.9-7.97s11.82-13.3,9.49-22.55c-2.33-9.26,22.01-26.03,23.59-29.33s10.72-13.83,6.67-27.98Z"/>
        <path class="cls-4" d="m872.05,4462.48s-6.01-35.43,21.58-53.35c0,0,2.56-1.18-.13-3.3-2.69-2.12-9-19.48,7.98-36.99,9.41-9.71-43.32-26.93-48.32,3.2,0,0-1.75,10.68,3.68,26.18,3.33,9.51-2.65,5.51-9.04,15.99-3.18,5.22-6.35,13.21-3.45,24.1,2.9,10.89,9.11,23.36,27.7,24.17Z"/>
      </g>
      <g>
        <path class="cls-3" d="m1208.4,5146.22s-19.87,12.27-26.75-16.79c0,0-45.09,25.96-64.96-7.66-19.87-33.62-3.06-42.8-3.06-42.8,0,0,4.59-3.06-4.59-9.17-9.17-6.11-25.98-38.21,4.59-77.95,0,0,6.11-1.53,1.53-16.81-4.59-15.28-3.06-47.38,18.34-56.55l35.15,16.81,21.4,16.81,18.34,12.86,12.23,26.88,1.53,24.45,1.53,33.62-9.17,39.74-1.53,30.57-4.59,25.98Z"/>
        <path class="cls-5" d="m1205.35,5023.94s13.76-15.43,0-39.81c-13.76-24.38-45.85-28.97-58.08-28.97,0,0-12.31-25.31-27.55-24.12,0,0,6.16-29.37,55.07-18.67,0,0,24.45,4.68,24.45,37.5,0,0,32.1-17.63,50.44,8.36s4.59,44.32,4.59,44.32c0,0,12.23,9.17,9.17,30.57-3.06,21.4-16.81,22.93-24.45,22.93,0,0,21.4,24.45,13.76,58.08-7.64,33.62-30.57,25.98-30.57,25.98,0,0-4.27-.04-5.95.75-1.69.78-9.33,8.98-16.97,7.94-7.64-1.04,4.59-7.16,4.59-13.27s6.11-21.4-1.53-30.57c-7.64-9.17,10.7-41.27,10.7-45.85s4.59-21.4-7.64-35.15Z"/>
        <path class="cls-4" d="m1199.23,5085.08s-25.98-36.68-4.59-71.83c0,0,2.25-2.71-1.93-3.65-4.18-.94-20.71-17.08-11.06-46.02,5.35-16.05-63.43-6.88-52.73,29.8,0,0,3.82,12.99,18.34,27.51,8.91,8.91,0,7.64-1.53,22.93-.76,7.6,0,18.34,9.17,29.04,9.17,10.7,22.93,21.4,44.32,12.23Z"/>
      </g>
      <g>
        <path class="cls-3" d="m635.25,5384.84s-12.27-19.87,16.79-26.75c0,0-25.96-45.09,7.66-64.96,33.62-19.87,42.8-3.06,42.8-3.06,0,0,3.06,4.59,9.17-4.59,6.11-9.17,38.21-25.98,77.95,4.59,0,0,1.53,6.11,16.81,1.53,15.28-4.59,47.38-3.06,56.55,18.34l-16.81,35.15-16.81,21.4-12.86,18.34-26.88,12.23-24.45,1.53-33.62,1.53-39.74-9.17-30.57-1.53-25.98-4.59Z"/>
        <path class="cls-5" d="m757.52,5381.78s15.43,13.76,39.81,0c24.38-13.76,28.97-45.85,28.97-58.08,0,0,25.31-12.31,24.12-27.55,0,0,29.37,6.16,18.67,55.07,0,0-4.68,24.45-37.5,24.45,0,0,17.63,32.1-8.36,50.44-25.98,18.34-44.32,4.59-44.32,4.59,0,0-9.17,12.23-30.57,9.17-21.4-3.06-22.93-16.81-22.93-24.45,0,0-24.45,21.4-58.08,13.76-33.62-7.64-25.98-30.57-25.98-30.57,0,0,.04-4.27-.75-5.95-.78-1.69-8.98-9.33-7.94-16.97,1.04-7.64,7.16,4.59,13.27,4.59s21.4,6.11,30.57-1.53c9.17-7.64,41.27,10.7,45.85,10.7s21.4,4.59,35.15-7.64Z"/>
        <path class="cls-4" d="m696.39,5375.67s36.68-25.98,71.83-4.59c0,0,2.71,2.25,3.65-1.93.94-4.18,17.08-20.71,46.02-11.06,16.05,5.35,6.88-63.43-29.8-52.73,0,0-12.99,3.82-27.51,18.34-8.91,8.91-7.64,0-22.93-1.53-7.6-.76-18.34,0-29.04,9.17-10.7,9.17-21.4,22.93-12.23,44.32Z"/>
      </g>
      <g>
        <path class="cls-3" d="m389.25,5461.84s-12.27-19.87,16.79-26.75c0,0-25.96-45.09,7.66-64.96,33.62-19.87,42.8-3.06,42.8-3.06,0,0,3.06,4.59,9.17-4.59,6.11-9.17,38.21-25.98,77.95,4.59,0,0,1.53,6.11,16.81,1.53,15.28-4.59,47.38-3.06,56.55,18.34l-16.81,35.15-16.81,21.4-12.86,18.34-26.88,12.23-24.45,1.53-33.62,1.53-39.74-9.17-30.57-1.53-25.98-4.59Z"/>
        <path class="cls-5" d="m511.52,5458.78s15.43,13.76,39.81,0c24.38-13.76,28.97-45.85,28.97-58.08,0,0,25.31-12.31,24.12-27.55,0,0,29.37,6.16,18.67,55.07,0,0-4.68,24.45-37.5,24.45,0,0,17.63,32.1-8.36,50.44s-44.32,4.59-44.32,4.59c0,0-9.17,12.23-30.57,9.17-21.4-3.06-22.93-16.81-22.93-24.45,0,0-24.45,21.4-58.08,13.76-33.62-7.64-25.98-30.57-25.98-30.57,0,0,.04-4.27-.75-5.95-.78-1.69-8.98-9.33-7.94-16.97,1.04-7.64,7.16,4.59,13.27,4.59s21.4,6.11,30.57-1.53c9.17-7.64,41.27,10.7,45.85,10.7s21.4,4.59,35.15-7.64Z"/>
        <path class="cls-4" d="m450.39,5452.67s36.68-25.98,71.83-4.59c0,0,2.71,2.25,3.65-1.93.94-4.18,17.08-20.71,46.02-11.06,16.05,5.35,6.88-63.43-29.8-52.73,0,0-12.99,3.82-27.51,18.34-8.91,8.91-7.64,0-22.93-1.53-7.6-.76-18.34,0-29.04,9.17-10.7,9.17-21.4,22.93-12.23,44.32Z"/>
      </g>
      <g>
        <path class="cls-3" d="m1175.25,5473.84s-12.27-19.87,16.79-26.75c0,0-25.96-45.09,7.66-64.96,33.62-19.87,42.8-3.06,42.8-3.06,0,0,3.06,4.59,9.17-4.59,6.11-9.17,38.21-25.98,77.95,4.59,0,0,1.53,6.11,16.81,1.53,15.28-4.59,47.38-3.06,56.55,18.34l-16.81,35.15-16.81,21.4-12.86,18.34-26.88,12.23-24.45,1.53-33.62,1.53-39.74-9.17-30.57-1.53-25.98-4.59Z"/>
        <path class="cls-5" d="m1297.52,5470.78s15.43,13.76,39.81,0c24.38-13.76,28.97-45.85,28.97-58.08,0,0,25.31-12.31,24.12-27.55,0,0,29.37,6.16,18.67,55.07,0,0-4.68,24.45-37.5,24.45,0,0,17.63,32.1-8.36,50.44-25.98,18.34-44.32,4.59-44.32,4.59,0,0-9.17,12.23-30.57,9.17-21.4-3.06-22.93-16.81-22.93-24.45,0,0-24.45,21.4-58.08,13.76-33.62-7.64-25.98-30.57-25.98-30.57,0,0,.04-4.27-.75-5.95-.78-1.69-8.98-9.33-7.94-16.97,1.04-7.64,7.16,4.59,13.27,4.59s21.4,6.11,30.57-1.53c9.17-7.64,41.27,10.7,45.85,10.7s21.4,4.59,35.15-7.64Z"/>
        <path class="cls-4" d="m1236.39,5464.67s36.68-25.98,71.83-4.59c0,0,2.71,2.25,3.65-1.93.94-4.18,17.08-20.71,46.02-11.06,16.05,5.35,6.88-63.43-29.8-52.73,0,0-12.99,3.82-27.51,18.34-8.91,8.91-7.64,0-22.93-1.53-7.6-.76-18.34,0-29.04,9.17-10.7,9.17-21.4,22.93-12.23,44.32Z"/>
      </g>
      <g>
        <path class="cls-3" d="m28.97,5142.08s-4.14-22.98,25.42-18.73c0,0-7.64-51.46,30.93-57.63,38.57-6.17,40.94,12.84,40.94,12.84,0,0,1.16,5.39,10.21-.91,9.05-6.29,45.07-10.18,70.85,32.83,0,0-.82,6.25,15.08,7.58,15.9,1.33,45.21,14.51,45.9,37.78l-28.52,26.55-23.48,13.75-18.68,12.36-29.49,1.53-23.31-7.54-31.85-10.9-33.62-23.09-27.88-12.62-22.5-13.79Z"/>
        <path class="cls-5" d="m143.86,5184.04s9.31,18.45,37.04,14.59c27.73-3.87,43.75-32.05,48.23-43.43,0,0,28.07-2.18,32.54-16.8,0,0,25.08,16.49-2.8,58.08,0,0-13.32,21.04-43.85,9.02,0,0,4.64,36.32-26.25,43.87s-42.92-11.97-42.92-11.97c0,0-13.01,8.02-31.8-2.67-18.79-10.68-15.17-24.04-12.37-31.15,0,0-30.59,10.95-59.08-8.48-28.49-19.43-12.98-37.96-12.98-37.96,0,0,1.6-3.96,1.49-5.81-.11-1.86-4.94-11.97-1.17-18.7,3.77-6.73,4.98,6.89,10.67,9.13s17.67,13.53,29,9.78c11.33-3.75,34.48,25.07,38.74,26.75s18.23,12.11,35.51,5.77Z"/>
        <path class="cls-4" d="m89.22,5155.95s43.65-10.74,68.52,22.05c0,0,1.7,3.09,4.1-.46,2.4-3.55,23.48-13.01,46.87,6.57,12.97,10.86,29.64-56.5-8.41-59.98,0,0-13.49-1.2-32.32,6.99-11.56,5.03-7.11-2.8-20.77-9.82-6.8-3.49-17.07-6.72-30.38-2.11-13.31,4.61-28.31,13.49-27.62,36.76Z"/>
      </g>
      <g>
        <path class="cls-3" d="m139.25,5273.84s-12.27-19.87,16.79-26.75c0,0-25.96-45.09,7.66-64.96,33.62-19.87,42.8-3.06,42.8-3.06,0,0,3.06,4.59,9.17-4.59,6.11-9.17,38.21-25.98,77.95,4.59,0,0,1.53,6.11,16.81,1.53,15.28-4.59,47.38-3.06,56.55,18.34l-16.81,35.15-16.81,21.4-12.86,18.34-26.88,12.23-24.45,1.53-33.62,1.53-39.74-9.17-30.57-1.53-25.98-4.59Z"/>
        <path class="cls-5" d="m261.52,5270.78s15.43,13.76,39.81,0c24.38-13.76,28.97-45.85,28.97-58.08,0,0,25.31-12.31,24.12-27.55,0,0,29.37,6.16,18.67,55.07,0,0-4.68,24.45-37.5,24.45,0,0,17.63,32.1-8.36,50.44-25.98,18.34-44.32,4.59-44.32,4.59,0,0-9.17,12.23-30.57,9.17-21.4-3.06-22.93-16.81-22.93-24.45,0,0-24.45,21.4-58.08,13.76-33.62-7.64-25.98-30.57-25.98-30.57,0,0,.04-4.27-.75-5.95-.78-1.69-8.98-9.33-7.94-16.97,1.04-7.64,7.16,4.59,13.27,4.59s21.4,6.11,30.57-1.53c9.17-7.64,41.27,10.7,45.85,10.7s21.4,4.59,35.15-7.64Z"/>
        <path class="cls-4" d="m200.39,5264.67s36.68-25.98,71.83-4.59c0,0,2.71,2.25,3.65-1.93.94-4.18,17.08-20.71,46.02-11.06,16.05,5.35,6.88-63.43-29.8-52.73,0,0-12.99,3.82-27.51,18.34-8.91,8.91-7.64,0-22.93-1.53-7.6-.76-18.34,0-29.04,9.17-10.7,9.17-21.4,22.93-12.23,44.32Z"/>
      </g>
      <g>
        <path class="cls-3" d="m317.41,5319.37s22.68,5.57,6.77,30.85c0,0,50.12,13.97,40.06,51.71-10.06,37.74-28.38,32.17-28.38,32.17,0,0-5.39-1.13-3.33,9.7,2.07,10.83-9.05,45.31-58.82,51.36,0,0-5.37-3.29-13.06,10.69-7.69,13.98-31.66,35.39-53.19,26.55l-12.64-36.86-3-27.05-3.68-22.09,10.61-27.56,16.37-18.23,22.91-24.66,34.77-21.31,22.88-20.33,21.75-14.94Z"/>
        <path class="cls-5" d="m232.34,5407.24s-20.65,1-28.4,27.9c-7.75,26.9,11.47,53.01,20.04,61.73,0,0-9.43,26.52,2.11,36.56,0,0-25.27,16.19-51.91-26.19,0,0-13.8-20.73,9.61-43.72,0,0-35.07-10.54-29.39-41.83s28.4-34.33,28.4-34.33c0,0-2.03-15.15,15.38-27.96,17.41-12.82,28.14-4.07,33.49,1.38,0,0,2.45-32.4,31.79-50.52s39.96,3.6,39.96,3.6c0,0,2.97,3.07,4.71,3.72s12.94.36,17.56,6.54c4.61,6.18-8.32,1.74-12.68,6.03s-19.55,10.64-20.73,22.51c-1.19,11.88-36.93,21.29-40.21,24.5s-18.48,11.73-19.72,30.09Z"/>
        <path class="cls-4" d="m280.23,5368.76s-7.96,44.24-48.03,53.62c0,0-3.51.3-1.25,3.94,2.26,3.64,2.33,26.74-25.08,40.14-15.2,7.43,39.55,50.07,58.21,16.73,0,0,6.59-11.83,6.77-32.36.11-12.6,5.45-5.36,17.42-14.98,5.96-4.79,13.08-12.85,14.29-26.89,1.2-14.04-.8-31.35-22.34-40.19Z"/>
      </g>
      <g>
        <path class="cls-3" d="m30.18,5441.18s-16.45-24.65,9.74-42.2c1.91-1.28,4.02-2.24,6.24-2.81,4.91-1.25,14.06-2.48,21.72,2.64,1.05.7,2.42-.08,2.35-1.34-.35-5.8,1.27-17.21,17.01-25.48,14.64-7.69,20.34-2.38,22.51,2.02.57,1.16,2.24,1.08,2.73-.12,2.14-5.29,6.92-13.85,15.91-16.04,13.25-3.22,14.04,11.31,22.16,4.24,8.12-7.07-7.72-14.7-7.72-14.7,0,0-15.57-9.5-.31-23.12,15.26-13.62,74.04-5.82,53.3,52.99l9.49,16.78-6.81,29.73-43.78,30.46-75.52,34.05-35.73-11.12-13.29-35.98Z"/>
        <path class="cls-5" d="m25.84,5427.58s10.4,2.01,17.72-1.83-17.53,48.43,22.52,53.55c40.05,5.12,59.89-38.92,59.89-38.92,0,0,42.36,9.51,56.63-16.66s-11.06-35.29-11.06-35.29l28.59-13.14s26.37-7.61,25.43,32.41c-.4,17.02-31.28,36.63-38.83,37.61-1.93.25-2.7,2.58-1.36,3.98,6.62,6.86,16.46,21.58.71,37.98-21.74,22.63-53.85,7.73-53.85,7.73,0,0-20.46,49.97-62.81,40.46-35.02-7.87-22.42-36.72-17-46.49.83-1.49-.15-3.32-1.85-3.43-12.76-.84-53.06-5.46-50.44-30.44,0,0,1.17-15.56,25.51-19l.2-8.51Z"/>
        <path class="cls-4" d="m74.87,5419.57s-17.5,12.92-8.97,32.73,15.71,8.56,17.86,5.56,7.1-14.94,21.12-16.7,43.45-9.74,47.7-19.44c4.25-9.7,4.79-19.33-8.61-23.5,0,0-12.56.99-15.41,6.22,0,0-7.84-22.04-24.64-11.35-16.8,10.69-15.12,21.01-15.12,21.01,0,0-8.86.92-13.95,5.46Z"/>
      </g>
      <g>
        <path class="cls-3" d="m1134.18,4576.18s-16.45-24.65,9.74-42.2c1.91-1.28,4.02-2.24,6.24-2.81,4.91-1.25,14.06-2.48,21.72,2.64,1.05.7,2.42-.08,2.35-1.34-.35-5.8,1.27-17.21,17.01-25.48,14.64-7.69,20.34-2.38,22.51,2.02.57,1.16,2.24,1.08,2.73-.12,2.14-5.29,6.92-13.85,15.91-16.04,13.25-3.22,14.04,11.31,22.16,4.24,8.12-7.07-7.72-14.7-7.72-14.7,0,0-15.57-9.5-.31-23.12s74.04-5.82,53.3,52.99l9.49,16.78-6.81,29.73-43.78,30.46-75.52,34.05-35.73-11.12-13.29-35.98Z"/>
        <path class="cls-5" d="m1129.84,4562.58s10.4,2.01,17.72-1.83-17.53,48.43,22.52,53.55c40.05,5.12,59.89-38.92,59.89-38.92,0,0,42.36,9.51,56.63-16.66,14.27-26.18-11.06-35.29-11.06-35.29l28.59-13.14s26.37-7.61,25.43,32.41c-.4,17.02-31.28,36.63-38.83,37.61-1.93.25-2.7,2.58-1.36,3.98,6.62,6.86,16.46,21.58.71,37.98-21.74,22.63-53.85,7.73-53.85,7.73,0,0-20.46,49.97-62.81,40.46-35.02-7.87-22.42-36.72-17-46.49.83-1.49-.15-3.32-1.85-3.43-12.76-.84-53.06-5.46-50.44-30.44,0,0,1.17-15.56,25.51-19l.2-8.51Z"/>
        <path class="cls-4" d="m1178.87,4554.57s-17.5,12.92-8.97,32.73,15.71,8.56,17.86,5.56,7.1-14.94,21.12-16.7,43.45-9.74,47.7-19.44c4.25-9.7,4.79-19.33-8.61-23.5,0,0-12.56.99-15.41,6.22,0,0-7.84-22.04-24.64-11.35-16.8,10.69-15.12,21.01-15.12,21.01,0,0-8.86.92-13.95,5.46Z"/>
      </g>
      <g>
        <path class="cls-3" d="m518.18,4987.18s-16.45-24.65,9.74-42.2c1.91-1.28,4.02-2.24,6.24-2.81,4.91-1.25,14.06-2.48,21.72,2.64,1.05.7,2.42-.08,2.35-1.34-.35-5.8,1.27-17.21,17.01-25.48,14.64-7.69,20.34-2.38,22.51,2.02.57,1.16,2.24,1.08,2.73-.12,2.14-5.29,6.92-13.85,15.91-16.04,13.25-3.22,14.04,11.31,22.16,4.24,8.12-7.07-7.72-14.7-7.72-14.7,0,0-15.57-9.5-.31-23.12s74.04-5.82,53.3,52.99l9.49,16.78-6.81,29.73-43.78,30.46-75.52,34.05-35.73-11.12-13.29-35.98Z"/>
        <path class="cls-5" d="m513.84,4973.58s10.4,2.01,17.72-1.83-17.53,48.43,22.52,53.55c40.05,5.12,59.89-38.92,59.89-38.92,0,0,42.36,9.51,56.63-16.66,14.27-26.18-11.06-35.29-11.06-35.29l28.59-13.14s26.37-7.61,25.43,32.41c-.4,17.02-31.28,36.63-38.83,37.61-1.93.25-2.7,2.58-1.36,3.98,6.62,6.86,16.46,21.58.71,37.98-21.74,22.63-53.85,7.73-53.85,7.73,0,0-20.46,49.97-62.81,40.46-35.02-7.87-22.42-36.72-17-46.49.83-1.49-.15-3.32-1.85-3.43-12.76-.84-53.06-5.46-50.44-30.44,0,0,1.17-15.56,25.51-19l.2-8.51Z"/>
        <path class="cls-4" d="m562.87,4965.57s-17.5,12.92-8.97,32.73,15.71,8.56,17.86,5.56,7.1-14.94,21.12-16.7,43.45-9.74,47.7-19.44c4.25-9.7,4.79-19.33-8.61-23.5,0,0-12.56.99-15.41,6.22,0,0-7.84-22.04-24.64-11.35-16.8,10.69-15.12,21.01-15.12,21.01,0,0-8.86.92-13.95,5.46Z"/>
      </g>
      <g>
        <path class="cls-3" d="m541.18,1752.18s-16.45-24.65,9.74-42.2c1.91-1.28,4.02-2.24,6.24-2.81,4.91-1.25,14.06-2.48,21.72,2.64,1.05.7,2.42-.08,2.35-1.34-.35-5.8,1.27-17.21,17.01-25.48,14.64-7.69,20.34-2.38,22.51,2.02.57,1.16,2.24,1.08,2.73-.12,2.14-5.29,6.92-13.85,15.91-16.04,13.25-3.22,14.04,11.31,22.16,4.24,8.12-7.07-7.72-14.7-7.72-14.7,0,0-15.57-9.5-.31-23.12,15.26-13.62,74.04-5.82,53.3,52.99l9.49,16.78-6.81,29.73-43.78,30.46-75.52,34.05-35.73-11.12-13.29-35.98Z"/>
        <path class="cls-5" d="m536.84,1738.58s10.4,2.01,17.72-1.83-17.53,48.43,22.52,53.55c40.05,5.12,59.89-38.92,59.89-38.92,0,0,42.36,9.51,56.63-16.66s-11.06-35.29-11.06-35.29l28.59-13.14s26.37-7.61,25.43,32.41c-.4,17.02-31.28,36.63-38.83,37.61-1.93.25-2.7,2.58-1.36,3.98,6.62,6.86,16.46,21.58.71,37.98-21.74,22.63-53.85,7.73-53.85,7.73,0,0-20.46,49.97-62.81,40.46-35.02-7.87-22.42-36.72-17-46.49.83-1.49-.15-3.32-1.85-3.43-12.76-.84-53.06-5.46-50.44-30.44,0,0,1.17-15.56,25.51-19l.2-8.51Z"/>
        <path class="cls-4" d="m585.87,1730.57s-17.5,12.92-8.97,32.73,15.71,8.56,17.86,5.56,7.1-14.94,21.12-16.7,43.45-9.74,47.7-19.44c4.25-9.7,4.79-19.33-8.61-23.5,0,0-12.56.99-15.41,6.22,0,0-7.84-22.04-24.64-11.35-16.8,10.69-15.12,21.01-15.12,21.01,0,0-8.86.92-13.95,5.46Z"/>
      </g>
      <g>
        <path class="cls-3" d="m701.82,5196.27s.42,29.63-31.11,30.14c-2.29.04-4.59-.3-6.77-1.03-4.8-1.62-13.15-5.56-16.8-14.01-.5-1.16-2.08-1.25-2.7-.15-2.86,5.06-10.41,13.76-28.12,12.15-16.47-1.5-18.37-9.06-17.8-13.92.15-1.29-1.29-2.13-2.35-1.38-4.67,3.27-13.34,7.87-22.07,4.82-12.88-4.49-5.64-17.12-16.3-15.6-10.65,1.52-1.5,16.53-1.5,16.53,0,0,7.92,16.43-12.3,19.58-20.21,3.14-65.32-35.34-15.96-73.44l1.15-19.24,21.86-21.26,53.3-1.79,81.9,12.44,23.95,28.75-8.39,37.43Z"/>
        <path class="cls-5" d="m698.07,5210.04s-7.64-7.34-15.87-8.09c-8.24-.75,41.03-31.14,10.19-57.2-30.84-26.06-71.42.14-71.42.14,0,0-30.39-31-56.6-16.78-26.2,14.22-9.89,35.63-9.89,35.63l-31.14-4.5s-26.27-7.94-3.74-41.03c9.58-14.07,46.16-13.76,53.03-10.49,1.75.83,3.67-.7,3.3-2.6-1.83-9.36-2.1-27.06,20.04-32.27,30.55-7.18,49.41,22.76,49.41,22.76,0,0,44.32-30.84,74.72.16,25.13,25.63-1.13,43.01-10.98,48.27-1.5.8-1.68,2.87-.31,3.89,10.26,7.63,41.58,33.41,25.81,52.96,0,0-9.43,12.43-31.74,2.09l-4.79,7.04Z"/>
        <path class="cls-4" d="m652.56,5190.12s21.71-1.35,25.31-22.61c3.6-21.26-8.53-15.72-11.98-14.38s-14.08,8.68-26.8,2.54c-12.73-6.14-41.77-15.43-50.61-9.59-8.83,5.84-14.53,13.62-5.54,24.41,0,0,11.08,5.99,16.32,3.15,0,0-5.39,22.76,14.52,22.91s24.11-9.43,24.11-9.43c0,0,7.94,4.04,14.67,3Z"/>
      </g>
      <g>
        <path class="cls-3" d="m584.61,5201.99s28.24-8.96,37.84,21.07c.7,2.19,1.04,4.48.97,6.78-.16,5.07-1.52,14.19-8.56,20.13-.97.81-.59,2.35.64,2.63,5.67,1.27,16.18,5.99,19.76,23.41,3.33,16.2-3.36,20.2-8.18,21.06-1.28.23-1.66,1.85-.64,2.65,4.49,3.53,11.39,10.49,11,19.73-.58,13.63-14.76,10.35-10.22,20.11,4.54,9.76,16.26-3.34,16.26-3.34,0,0,13.44-12.33,22.29,6.11,8.85,18.44-14.95,72.75-65.69,36.51l-18.75,4.46-26.67-14.78-17.12-50.51-11.77-82,20.6-31.24,38.26-2.79Z"/>
        <path class="cls-5" d="m598.88,5201.59s-4.82,9.43-3.15,17.53c1.66,8.1-41.67-30.28-57.7,6.78-16.03,37.06,20.78,68.33,20.78,68.33,0,0-20.89,38.05.3,59.03,21.19,20.97,36.97-.84,36.97-.84l4.7,31.11s0,27.45-38.19,15.44c-16.24-5.11-26.51-40.21-25.37-47.74.29-1.92-1.73-3.31-3.45-2.41-8.43,4.45-25.3,9.83-36.68-9.85-15.71-27.17,7.51-53.88,7.51-53.88,0,0-42.33-33.52-21.45-71.57,17.27-31.46,41.5-11.35,49.38-3.44,1.2,1.21,3.24.77,3.81-.83,4.34-12.02,19.96-49.46,43.24-40.01,0,0,14.62,5.44,11.18,29.78l8.12,2.55Z"/>
        <path class="cls-4" d="m592.97,5250.92s-7.56-20.4-28.96-17.69c-21.39,2.7-12.58,12.71-10.3,15.62s12.38,10.96,10.18,24.92-2.69,44.45,5.45,51.22c8.14,6.77,17.24,9.97,24.97-1.75,0,0,2.53-12.34-1.71-16.53,0,0,23.35-1.42,17.73-20.52s-16-20.35-16-20.35c0,0,1.58-8.77-1.37-14.91Z"/>
      </g>
      <g>
        <path class="cls-3" d="m1076.18,1011.18s-16.45-24.65,9.74-42.2c1.91-1.28,4.02-2.24,6.24-2.81,4.91-1.25,14.06-2.48,21.72,2.64,1.05.7,2.42-.08,2.35-1.34-.35-5.8,1.27-17.21,17.01-25.48,14.64-7.69,20.34-2.38,22.51,2.02.57,1.16,2.24,1.08,2.73-.12,2.14-5.29,6.92-13.85,15.91-16.04,13.25-3.22,14.04,11.31,22.16,4.24,8.12-7.07-7.72-14.7-7.72-14.7,0,0-15.57-9.5-.31-23.12s74.04-5.82,53.3,52.99l9.49,16.78-6.81,29.73-43.78,30.46-75.52,34.05-35.73-11.12-13.29-35.98Z"/>
        <path class="cls-5" d="m1071.84,997.58s10.4,2.01,17.72-1.83-17.53,48.43,22.52,53.55c40.05,5.12,59.89-38.92,59.89-38.92,0,0,42.36,9.51,56.63-16.66,14.27-26.18-11.06-35.29-11.06-35.29l28.59-13.14s26.37-7.61,25.43,32.41c-.4,17.02-31.28,36.63-38.83,37.61-1.93.25-2.7,2.58-1.36,3.98,6.62,6.86,16.46,21.58.71,37.98-21.74,22.63-53.85,7.73-53.85,7.73,0,0-20.46,49.97-62.81,40.46-35.02-7.87-22.42-36.72-17-46.49.83-1.49-.15-3.32-1.85-3.43-12.76-.84-53.06-5.46-50.44-30.44,0,0,1.17-15.56,25.51-19l.2-8.51Z"/>
        <path class="cls-4" d="m1120.87,989.57s-17.5,12.92-8.97,32.73,15.71,8.56,17.86,5.56,7.1-14.94,21.12-16.7,43.45-9.74,47.7-19.44c4.25-9.7,4.79-19.33-8.61-23.5,0,0-12.56.99-15.41,6.22,0,0-7.84-22.04-24.64-11.35-16.8,10.69-15.12,21.01-15.12,21.01,0,0-8.86.92-13.95,5.46Z"/>
      </g>
      <g>
        <path class="cls-3" d="m644.18,567.18s-16.45-24.65,9.74-42.2c1.91-1.28,4.02-2.24,6.24-2.81,4.91-1.25,14.06-2.48,21.72,2.64,1.05.7,2.42-.08,2.35-1.34-.35-5.8,1.27-17.21,17.01-25.48,14.64-7.69,20.34-2.38,22.51,2.02.57,1.16,2.24,1.08,2.73-.12,2.14-5.29,6.92-13.85,15.91-16.04,13.25-3.22,14.04,11.31,22.16,4.24,8.12-7.07-7.72-14.7-7.72-14.7,0,0-15.57-9.5-.31-23.12s74.04-5.82,53.3,52.99l9.49,16.78-6.81,29.73-43.78,30.46-75.52,34.05-35.73-11.12-13.29-35.98Z"/>
        <path class="cls-5" d="m639.84,553.58s10.4,2.01,17.72-1.83-17.53,48.43,22.52,53.55c40.05,5.12,59.89-38.92,59.89-38.92,0,0,42.36,9.51,56.63-16.66,14.27-26.18-11.06-35.29-11.06-35.29l28.59-13.14s26.37-7.61,25.43,32.41c-.4,17.02-31.28,36.63-38.83,37.61-1.93.25-2.7,2.58-1.36,3.98,6.62,6.86,16.46,21.58.71,37.98-21.74,22.63-53.85,7.73-53.85,7.73,0,0-20.46,49.97-62.81,40.46-35.02-7.87-22.42-36.72-17-46.49.83-1.49-.15-3.32-1.85-3.43-12.76-.84-53.06-5.46-50.44-30.44,0,0,1.17-15.56,25.51-19l.2-8.51Z"/>
        <path class="cls-4" d="m688.87,545.57s-17.5,12.92-8.97,32.73,15.71,8.56,17.86,5.56,7.1-14.94,21.12-16.7,43.45-9.74,47.7-19.44c4.25-9.7,4.79-19.33-8.61-23.5,0,0-12.56.99-15.41,6.22,0,0-7.84-22.04-24.64-11.35s-15.12,21.01-15.12,21.01c0,0-8.86.92-13.95,5.46Z"/>
      </g>
      <g>
        <path class="cls-3" d="m878.18,5163.18s-16.45-24.65,9.74-42.2c1.91-1.28,4.02-2.24,6.24-2.81,4.91-1.25,14.06-2.48,21.72,2.64,1.05.7,2.42-.08,2.35-1.34-.35-5.8,1.27-17.21,17.01-25.48,14.64-7.69,20.34-2.38,22.51,2.02.57,1.16,2.24,1.08,2.73-.12,2.14-5.29,6.92-13.85,15.91-16.04,13.25-3.22,14.04,11.31,22.16,4.24,8.12-7.07-7.72-14.7-7.72-14.7,0,0-15.57-9.5-.31-23.12,15.26-13.62,74.04-5.82,53.3,52.99l9.49,16.78-6.81,29.73-43.78,30.46-75.52,34.05-35.73-11.12-13.29-35.98Z"/>
        <path class="cls-5" d="m873.84,5149.58s10.4,2.01,17.72-1.83-17.53,48.43,22.52,53.55c40.05,5.12,59.89-38.92,59.89-38.92,0,0,42.36,9.51,56.63-16.66s-11.06-35.29-11.06-35.29l28.59-13.14s26.37-7.61,25.43,32.41c-.4,17.02-31.28,36.63-38.83,37.61-1.93.25-2.7,2.58-1.36,3.98,6.62,6.86,16.46,21.58.71,37.98-21.74,22.63-53.85,7.73-53.85,7.73,0,0-20.46,49.97-62.81,40.46-35.02-7.87-22.42-36.72-17-46.49.83-1.49-.15-3.32-1.85-3.43-12.76-.84-53.06-5.46-50.44-30.44,0,0,1.17-15.56,25.51-19l.2-8.51Z"/>
        <path class="cls-4" d="m922.87,5141.57s-17.5,12.92-8.97,32.73,15.71,8.56,17.86,5.56,7.1-14.94,21.12-16.7,43.45-9.74,47.7-19.44c4.25-9.7,4.79-19.33-8.61-23.5,0,0-12.56.99-15.41,6.22,0,0-7.84-22.04-24.64-11.35-16.8,10.69-15.12,21.01-15.12,21.01,0,0-8.86.92-13.95,5.46Z"/>
      </g>
      <g>
        <path class="cls-3" d="m946.18,5365.18s-16.45-24.65,9.74-42.2c1.91-1.28,4.02-2.24,6.24-2.81,4.91-1.25,14.06-2.48,21.72,2.64,1.05.7,2.42-.08,2.35-1.34-.35-5.8,1.27-17.21,17.01-25.48,14.64-7.69,20.34-2.38,22.51,2.02.57,1.16,2.24,1.08,2.73-.12,2.14-5.29,6.92-13.85,15.91-16.04,13.25-3.22,14.04,11.31,22.16,4.24,8.12-7.07-7.72-14.7-7.72-14.7,0,0-15.57-9.5-.31-23.12,15.26-13.62,74.04-5.82,53.3,52.99l9.49,16.78-6.81,29.73-43.78,30.46-75.52,34.05-35.73-11.12-13.29-35.98Z"/>
        <path class="cls-5" d="m941.84,5351.58s10.4,2.01,17.72-1.83-17.53,48.43,22.52,53.55c40.05,5.12,59.89-38.92,59.89-38.92,0,0,42.36,9.51,56.63-16.66s-11.06-35.29-11.06-35.29l28.59-13.14s26.37-7.61,25.43,32.41c-.4,17.02-31.28,36.63-38.83,37.61-1.93.25-2.7,2.58-1.36,3.98,6.62,6.86,16.46,21.58.71,37.98-21.74,22.63-53.85,7.73-53.85,7.73,0,0-20.46,49.97-62.81,40.46-35.02-7.87-22.42-36.72-17-46.49.83-1.49-.15-3.32-1.85-3.43-12.76-.84-53.06-5.46-50.44-30.44,0,0,1.17-15.56,25.51-19l.2-8.51Z"/>
        <path class="cls-4" d="m990.87,5343.57s-17.5,12.92-8.97,32.73,15.71,8.56,17.86,5.56,7.1-14.94,21.12-16.7,43.45-9.74,47.7-19.44c4.25-9.7,4.79-19.33-8.61-23.5,0,0-12.56.99-15.41,6.22,0,0-7.84-22.04-24.64-11.35-16.8,10.69-15.12,21.01-15.12,21.01,0,0-8.86.92-13.95,5.46Z"/>
      </g>
      <g>
        <path class="cls-3" d="m100.18,4697.18s-16.45-24.65,9.74-42.2c1.91-1.28,4.02-2.24,6.24-2.81,4.91-1.25,14.06-2.48,21.72,2.64,1.05.7,2.42-.08,2.35-1.34-.35-5.8,1.27-17.21,17.01-25.48,14.64-7.69,20.34-2.38,22.51,2.02.57,1.16,2.24,1.08,2.73-.12,2.14-5.29,6.92-13.85,15.91-16.04,13.25-3.22,14.04,11.31,22.16,4.24,8.12-7.07-7.72-14.7-7.72-14.7,0,0-15.57-9.5-.31-23.12,15.26-13.62,74.04-5.82,53.3,52.99l9.49,16.78-6.81,29.73-43.78,30.46-75.52,34.05-35.73-11.12-13.29-35.98Z"/>
        <path class="cls-5" d="m95.84,4683.58s10.4,2.01,17.72-1.83-17.53,48.43,22.52,53.55c40.05,5.12,59.89-38.92,59.89-38.92,0,0,42.36,9.51,56.63-16.66,14.27-26.18-11.06-35.29-11.06-35.29l28.59-13.14s26.37-7.61,25.43,32.41c-.4,17.02-31.28,36.63-38.83,37.61-1.93.25-2.7,2.58-1.36,3.98,6.62,6.86,16.46,21.58.71,37.98-21.74,22.63-53.85,7.73-53.85,7.73,0,0-20.46,49.97-62.81,40.46-35.02-7.87-22.42-36.72-17-46.49.83-1.49-.15-3.32-1.85-3.43-12.76-.84-53.06-5.46-50.44-30.44,0,0,1.17-15.56,25.51-19l.2-8.51Z"/>
        <path class="cls-4" d="m144.87,4675.57s-17.5,12.92-8.97,32.73,15.71,8.56,17.86,5.56c2.16-3,7.1-14.94,21.12-16.7s43.45-9.74,47.7-19.44c4.25-9.7,4.79-19.33-8.61-23.5,0,0-12.56.99-15.41,6.22,0,0-7.84-22.04-24.64-11.35-16.8,10.69-15.12,21.01-15.12,21.01,0,0-8.86.92-13.95,5.46Z"/>
      </g>
      <g>
        <path class="cls-3" d="m772.21,3717.68s26.64-12.97,40.5,15.35c1.01,2.06,1.68,4.28,1.94,6.56.57,5.04.56,14.26-5.54,21.16-.84.95-.24,2.41,1.01,2.51,5.79.44,16.88,3.58,22.94,20.3,5.64,15.55-.39,20.47-5.04,22.03-1.23.41-1.38,2.08-.25,2.72,4.95,2.84,12.79,8.73,13.74,17.93,1.4,13.57-13.1,12.38-7.2,21.38,5.9,9,15.61-5.66,15.61-5.66,0,0,11.51-14.15,22.95,2.81,11.43,16.96-4.23,74.15-59.7,45.66l-17.91,7.14-28.53-10.76-24.27-47.49-23.55-79.42,15.85-33.9,37.45-8.31Z"/>
        <path class="cls-5" d="m786.27,3715.21s-3.4,10.03-.58,17.8-45.62-23.91-56.1,15.08,30.48,64.59,30.48,64.59c0,0-15.14,40.68,8.86,58.36,24.01,17.68,36.46-6.19,36.46-6.19l9.16,30.1s3.98,27.16-35.55,20.82c-16.81-2.7-32.07-35.93-32.03-43.55.01-1.94-2.19-3.03-3.76-1.88-7.7,5.63-23.61,13.4-37.72-4.42-19.48-24.6-.39-54.4-.39-54.4,0,0-46.75-27.02-31.61-67.7,12.52-33.63,39.41-17.25,48.36-10.57,1.36,1.02,3.31.3,3.65-1.37,2.55-12.53,12.57-51.83,36.97-45.87,0,0,15.26,3.26,15.38,27.85l8.41,1.35Z"/>
        <path class="cls-4" d="m787.58,3764.88s-10.44-19.08-31.22-13.3-10.61,14.41-7.92,16.95c2.68,2.55,13.84,9.05,13.69,23.18s3.79,44.37,12.83,49.89c9.04,5.52,18.51,7.36,24.45-5.35,0,0,.71-12.57-4.09-16.11,0,0,22.89-4.79,14.57-22.88s-18.78-17.82-18.78-17.82c0,0,.29-8.9-3.52-14.56Z"/>
      </g>
      <g>
        <path class="cls-3" d="m299.21,2702.68s26.64-12.97,40.5,15.35c1.01,2.06,1.68,4.28,1.94,6.56.57,5.04.56,14.26-5.54,21.16-.84.95-.24,2.41,1.01,2.51,5.79.44,16.88,3.58,22.94,20.3,5.64,15.55-.39,20.47-5.04,22.03-1.23.41-1.38,2.08-.25,2.72,4.95,2.84,12.79,8.73,13.74,17.93,1.4,13.57-13.1,12.38-7.2,21.38,5.9,9,15.61-5.66,15.61-5.66,0,0,11.51-14.15,22.95,2.81,11.43,16.96-4.23,74.15-59.7,45.66l-17.91,7.14-28.53-10.76-24.27-47.49-23.55-79.42,15.85-33.9,37.45-8.31Z"/>
        <path class="cls-5" d="m313.27,2700.21s-3.4,10.03-.58,17.8-45.62-23.91-56.1,15.08c-10.48,38.99,30.48,64.59,30.48,64.59,0,0-15.14,40.68,8.86,58.36,24.01,17.68,36.46-6.19,36.46-6.19l9.16,30.1s3.98,27.16-35.55,20.82c-16.81-2.7-32.07-35.93-32.03-43.55.01-1.94-2.19-3.03-3.76-1.88-7.7,5.63-23.61,13.4-37.72-4.42-19.48-24.6-.39-54.4-.39-54.4,0,0-46.75-27.02-31.61-67.7,12.52-33.63,39.41-17.25,48.36-10.57,1.36,1.02,3.31.3,3.65-1.37,2.55-12.53,12.57-51.83,36.97-45.87,0,0,15.26,3.26,15.38,27.85l8.41,1.35Z"/>
        <path class="cls-4" d="m314.58,2749.88s-10.44-19.08-31.22-13.3-10.61,14.41-7.92,16.95c2.68,2.55,13.84,9.05,13.69,23.18-.15,14.13,3.79,44.37,12.83,49.89,9.04,5.52,18.51,7.36,24.45-5.35,0,0,.71-12.57-4.09-16.11,0,0,22.89-4.79,14.57-22.88s-18.78-17.82-18.78-17.82c0,0,.29-8.9-3.52-14.56Z"/>
      </g>
      <g>
        <path class="cls-3" d="m323.18,5145.18s-16.45-24.65,9.74-42.2c1.91-1.28,4.02-2.24,6.24-2.81,4.91-1.25,14.06-2.48,21.72,2.64,1.05.7,2.42-.08,2.35-1.34-.35-5.8,1.27-17.21,17.01-25.48,14.64-7.69,20.34-2.38,22.51,2.02.57,1.16,2.24,1.08,2.73-.12,2.14-5.29,6.92-13.85,15.91-16.04,13.25-3.22,14.04,11.31,22.16,4.24,8.12-7.07-7.72-14.7-7.72-14.7,0,0-15.57-9.5-.31-23.12,15.26-13.62,74.04-5.82,53.3,52.99l9.49,16.78-6.81,29.73-43.78,30.46-75.52,34.05-35.73-11.12-13.29-35.98Z"/>
        <path class="cls-5" d="m318.84,5131.58s10.4,2.01,17.72-1.83-17.53,48.43,22.52,53.55c40.05,5.12,59.89-38.92,59.89-38.92,0,0,42.36,9.51,56.63-16.66s-11.06-35.29-11.06-35.29l28.59-13.14s26.37-7.61,25.43,32.41c-.4,17.02-31.28,36.63-38.83,37.61-1.93.25-2.7,2.58-1.36,3.98,6.62,6.86,16.46,21.58.71,37.98-21.74,22.63-53.85,7.73-53.85,7.73,0,0-20.46,49.97-62.81,40.46-35.02-7.87-22.42-36.72-17-46.49.83-1.49-.15-3.32-1.85-3.43-12.76-.84-53.06-5.46-50.44-30.44,0,0,1.17-15.56,25.51-19l.2-8.51Z"/>
        <path class="cls-4" d="m367.87,5123.57s-17.5,12.92-8.97,32.73,15.71,8.56,17.86,5.56,7.1-14.94,21.12-16.7,43.45-9.74,47.7-19.44c4.25-9.7,4.79-19.33-8.61-23.5,0,0-12.56.99-15.41,6.22,0,0-7.84-22.04-24.64-11.35-16.8,10.69-15.12,21.01-15.12,21.01,0,0-8.86.92-13.95,5.46Z"/>
      </g>
      <g>
        <path class="cls-3" d="m754.18,5476.18s-16.45-24.65,9.74-42.2c1.91-1.28,4.02-2.24,6.24-2.81,4.91-1.25,14.06-2.48,21.72,2.64,1.05.7,2.42-.08,2.35-1.34-.35-5.8,1.27-17.21,17.01-25.48,14.64-7.69,20.34-2.38,22.51,2.02.57,1.16,2.24,1.08,2.73-.12,2.14-5.29,6.92-13.85,15.91-16.04,13.25-3.22,14.04,11.31,22.16,4.24,8.12-7.07-7.72-14.7-7.72-14.7,0,0-15.57-9.5-.31-23.12,15.26-13.62,74.04-5.82,53.3,52.99l9.49,16.78-6.81,29.73-43.78,30.46-75.52,34.05-35.73-11.12-13.29-35.98Z"/>
        <path class="cls-5" d="m749.84,5462.58s10.4,2.01,17.72-1.83-17.53,48.43,22.52,53.55c40.05,5.12,59.89-38.92,59.89-38.92,0,0,42.36,9.51,56.63-16.66s-11.06-35.29-11.06-35.29l28.59-13.14s26.37-7.61,25.43,32.41c-.4,17.02-31.28,36.63-38.83,37.61-1.93.25-2.7,2.58-1.36,3.98,6.62,6.86,16.46,21.58.71,37.98-21.74,22.63-53.85,7.73-53.85,7.73,0,0-20.46,49.97-62.81,40.46-35.02-7.87-22.42-36.72-17-46.49.83-1.49-.15-3.32-1.85-3.43-12.76-.84-53.06-5.46-50.44-30.44,0,0,1.17-15.56,25.51-19l.2-8.51Z"/>
        <path class="cls-4" d="m798.87,5454.57s-17.5,12.92-8.97,32.73,15.71,8.56,17.86,5.56,7.1-14.94,21.12-16.7,43.45-9.74,47.7-19.44c4.25-9.7,4.79-19.33-8.61-23.5,0,0-12.56.99-15.41,6.22,0,0-7.84-22.04-24.64-11.35-16.8,10.69-15.12,21.01-15.12,21.01,0,0-8.86.92-13.95,5.46Z"/>
      </g>
      <g>
        <path class="cls-3" d="m897.18,5292.18s-16.45-24.65,9.74-42.2c1.91-1.28,4.02-2.24,6.24-2.81,4.91-1.25,14.06-2.48,21.72,2.64,1.05.7,2.42-.08,2.35-1.34-.35-5.8,1.27-17.21,17.01-25.48,14.64-7.69,20.34-2.38,22.51,2.02.57,1.16,2.24,1.08,2.73-.12,2.14-5.29,6.92-13.85,15.91-16.04,13.25-3.22,14.04,11.31,22.16,4.24,8.12-7.07-7.72-14.7-7.72-14.7,0,0-15.57-9.5-.31-23.12,15.26-13.62,74.04-5.82,53.3,52.99l9.49,16.78-6.81,29.73-43.78,30.46-75.52,34.05-35.73-11.12-13.29-35.98Z"/>
        <path class="cls-5" d="m892.84,5278.58s10.4,2.01,17.72-1.83-17.53,48.43,22.52,53.55c40.05,5.12,59.89-38.92,59.89-38.92,0,0,42.36,9.51,56.63-16.66s-11.06-35.29-11.06-35.29l28.59-13.14s26.37-7.61,25.43,32.41c-.4,17.02-31.28,36.63-38.83,37.61-1.93.25-2.7,2.58-1.36,3.98,6.62,6.86,16.46,21.58.71,37.98-21.74,22.63-53.85,7.73-53.85,7.73,0,0-20.46,49.97-62.81,40.46-35.02-7.87-22.42-36.72-17-46.49.83-1.49-.15-3.32-1.85-3.43-12.76-.84-53.06-5.46-50.44-30.44,0,0,1.17-15.56,25.51-19l.2-8.51Z"/>
        <path class="cls-4" d="m941.87,5270.57s-17.5,12.92-8.97,32.73,15.71,8.56,17.86,5.56,7.1-14.94,21.12-16.7,43.45-9.74,47.7-19.44c4.25-9.7,4.79-19.33-8.61-23.5,0,0-12.56.99-15.41,6.22,0,0-7.84-22.04-24.64-11.35-16.8,10.69-15.12,21.01-15.12,21.01,0,0-8.86.92-13.95,5.46Z"/>
      </g>
      <g>
        <path class="cls-3" d="m1261.18,5175.18s-16.45-24.65,9.74-42.2c1.91-1.28,4.02-2.24,6.24-2.81,4.91-1.25,14.06-2.48,21.72,2.64,1.05.7,2.42-.08,2.35-1.34-.35-5.8,1.27-17.21,17.01-25.48,14.64-7.69,20.34-2.38,22.51,2.02.57,1.16,2.24,1.08,2.73-.12,2.14-5.29,6.92-13.85,15.91-16.04,13.25-3.22,14.04,11.31,22.16,4.24,8.12-7.07-7.72-14.7-7.72-14.7,0,0-15.57-9.5-.31-23.12,15.26-13.62,74.04-5.82,53.3,52.99l9.49,16.78-6.81,29.73-43.78,30.46-75.52,34.05-35.73-11.12-13.29-35.98Z"/>
        <path class="cls-5" d="m1256.84,5161.58s10.4,2.01,17.72-1.83-17.53,48.43,22.52,53.55c40.05,5.12,59.89-38.92,59.89-38.92,0,0,42.36,9.51,56.63-16.66s-11.06-35.29-11.06-35.29l28.59-13.14s26.37-7.61,25.43,32.41c-.4,17.02-31.28,36.63-38.83,37.61-1.93.25-2.7,2.58-1.36,3.98,6.62,6.86,16.46,21.58.71,37.98-21.74,22.63-53.85,7.73-53.85,7.73,0,0-20.46,49.97-62.81,40.46-35.02-7.87-22.42-36.72-17-46.49.83-1.49-.15-3.32-1.85-3.43-12.76-.84-53.06-5.46-50.44-30.44,0,0,1.17-15.56,25.51-19l.2-8.51Z"/>
        <path class="cls-4" d="m1305.87,5153.57s-17.5,12.92-8.97,32.73,15.71,8.56,17.86,5.56,7.1-14.94,21.12-16.7,43.45-9.74,47.7-19.44c4.25-9.7,4.79-19.33-8.61-23.5,0,0-12.56.99-15.41,6.22,0,0-7.84-22.04-24.64-11.35-16.8,10.69-15.12,21.01-15.12,21.01,0,0-8.86.92-13.95,5.46Z"/>
      </g>
      <g>
        <path class="cls-3" d="m915.18,5462.18s-16.45-24.65,9.74-42.2c1.91-1.28,4.02-2.24,6.24-2.81,4.91-1.25,14.06-2.48,21.72,2.64,1.05.7,2.42-.08,2.35-1.34-.35-5.8,1.27-17.21,17.01-25.48,14.64-7.69,20.34-2.38,22.51,2.02.57,1.16,2.24,1.08,2.73-.12,2.14-5.29,6.92-13.85,15.91-16.04,13.25-3.22,14.04,11.31,22.16,4.24,8.12-7.07-7.72-14.7-7.72-14.7,0,0-15.57-9.5-.31-23.12,15.26-13.62,74.04-5.82,53.3,52.99l9.49,16.78-6.81,29.73-43.78,30.46-75.52,34.05-35.73-11.12-13.29-35.98Z"/>
        <path class="cls-5" d="m910.84,5448.58s10.4,2.01,17.72-1.83-17.53,48.43,22.52,53.55c40.05,5.12,59.89-38.92,59.89-38.92,0,0,42.36,9.51,56.63-16.66s-11.06-35.29-11.06-35.29l28.59-13.14s26.37-7.61,25.43,32.41c-.4,17.02-31.28,36.63-38.83,37.61-1.93.25-2.7,2.58-1.36,3.98,6.62,6.86,16.46,21.58.71,37.98-21.74,22.63-53.85,7.73-53.85,7.73,0,0-20.46,49.97-62.81,40.46-35.02-7.87-22.42-36.72-17-46.49.83-1.49-.15-3.32-1.85-3.43-12.76-.84-53.06-5.46-50.44-30.44,0,0,1.17-15.56,25.51-19l.2-8.51Z"/>
        <path class="cls-4" d="m959.87,5440.57s-17.5,12.92-8.97,32.73,15.71,8.56,17.86,5.56,7.1-14.94,21.12-16.7,43.45-9.74,47.7-19.44c4.25-9.7,4.79-19.33-8.61-23.5,0,0-12.56.99-15.41,6.22,0,0-7.84-22.04-24.64-11.35-16.8,10.69-15.12,21.01-15.12,21.01,0,0-8.86.92-13.95,5.46Z"/>
      </g>
      <g>
        <path class="cls-3" d="m1089.18,5283.18s-16.45-24.65,9.74-42.2c1.91-1.28,4.02-2.24,6.24-2.81,4.91-1.25,14.06-2.48,21.72,2.64,1.05.7,2.42-.08,2.35-1.34-.35-5.8,1.27-17.21,17.01-25.48,14.64-7.69,20.34-2.38,22.51,2.02.57,1.16,2.24,1.08,2.73-.12,2.14-5.29,6.92-13.85,15.91-16.04,13.25-3.22,14.04,11.31,22.16,4.24,8.12-7.07-7.72-14.7-7.72-14.7,0,0-15.57-9.5-.31-23.12,15.26-13.62,74.04-5.82,53.3,52.99l9.49,16.78-6.81,29.73-43.78,30.46-75.52,34.05-35.73-11.12-13.29-35.98Z"/>
        <path class="cls-5" d="m1084.84,5269.58s10.4,2.01,17.72-1.83-17.53,48.43,22.52,53.55c40.05,5.12,59.89-38.92,59.89-38.92,0,0,42.36,9.51,56.63-16.66,14.27-26.18-11.06-35.29-11.06-35.29l28.59-13.14s26.37-7.61,25.43,32.41c-.4,17.02-31.28,36.63-38.83,37.61-1.93.25-2.7,2.58-1.36,3.98,6.62,6.86,16.46,21.58.71,37.98-21.74,22.63-53.85,7.73-53.85,7.73,0,0-20.46,49.97-62.81,40.46-35.02-7.87-22.42-36.72-17-46.49.83-1.49-.15-3.32-1.85-3.43-12.76-.84-53.06-5.46-50.44-30.44,0,0,1.17-15.56,25.51-19l.2-8.51Z"/>
        <path class="cls-4" d="m1133.87,5261.57s-17.5,12.92-8.97,32.73,15.71,8.56,17.86,5.56c2.16-3,7.1-14.94,21.12-16.7s43.45-9.74,47.7-19.44c4.25-9.7,4.79-19.33-8.61-23.5,0,0-12.56.99-15.41,6.22,0,0-7.84-22.04-24.64-11.35-16.8,10.69-15.12,21.01-15.12,21.01,0,0-8.86.92-13.95,5.46Z"/>
      </g>
      <g>
        <path class="cls-3" d="m267.76,5499.09s-25.42-4.53-10.96-29.09c9.06-15.39,26.56-9.27,26.56-9.27,0,0,20.73-17.09,2.14-38.47,0,0-28.28-18.44-7.2-34.03,21.08-15.6,49.32,2.95,50.59,11.38,1.26,8.43,2.95,13.91,13.49,8.85,10.54-5.06,14.75,9.7,15.18,12.22s-.84,12.22,12.22,9.27,11.38,15.18,11.38,15.18l-3.79,42.15-19.2,21.71h-42.23l-21.19,5.69-22.85-5.69-4.13-9.91Z"/>
        <path class="cls-5" d="m358.61,5441.13s8.85-6.74,10.75-10.75c1.9-4,30.09,5.23,29.06,27.38-1.03,22.15-14.52,25.1-14.52,25.1,0,0,18.97,10.54,7.59,40.89s-64.41,16.86-79.42-9.06c0,0-11.09,34.57-46.99,26.45-35.3-7.98-6.53-41.55,3.26-45.86.57-.25,1.12-.53,1.65-.84,3.32-1.98,12.82-8.59,16.95-21.69,0,0,19.3,25.47,45.83,27.37,13.82.99,26.8-6.84,32.69-19.38,5.53-11.77,8.9-28.28-6.86-39.6Z"/>
        <path class="cls-4" d="m321.72,5440.92s6.92,12.22-9.66,16.64c-.54.14-1.1.16-1.65.05-2.64-.55-11.32-2-14.41,1.86-1.69,2.11-3.37,5.06-.84,12.65,2.53,7.59-5.48,16.44-6.74,19.81-1.26,3.37-6.32,12.22.84,16.02,6.92,3.66,14.24-2.11,21.57-18.84.75-1.71,1.78-3.28,3.06-4.63,3.33-3.48,10.64-9.38,24.27-12.78,18.79-4.7,18.68-26.76,3.72-28.24-2.3-.23-4.26-1.73-5.03-3.91-3.54-10.09-13.86-35.83-26.09-32.77-15.18,3.79-14.33,25.29-2.95,29.93,11.38,4.64,11.8,2.11,13.91,4.22Z"/>
      </g>
      <g>
        <path class="cls-3" d="m63.76,5325.09s-25.42-4.53-10.96-29.09c9.06-15.39,26.56-9.27,26.56-9.27,0,0,20.73-17.09,2.14-38.47,0,0-28.28-18.44-7.2-34.03,21.08-15.6,49.32,2.95,50.59,11.38,1.26,8.43,2.95,13.91,13.49,8.85,10.54-5.06,14.75,9.7,15.18,12.22s-.84,12.22,12.22,9.27,11.38,15.18,11.38,15.18l-3.79,42.15-19.2,21.71h-42.23l-21.19,5.69-22.85-5.69-4.13-9.91Z"/>
        <path class="cls-5" d="m154.61,5267.13s8.85-6.74,10.75-10.75c1.9-4,30.09,5.23,29.06,27.38-1.03,22.15-14.52,25.1-14.52,25.1,0,0,18.97,10.54,7.59,40.89s-64.41,16.86-79.42-9.06c0,0-11.09,34.57-46.99,26.45-35.3-7.98-6.53-41.55,3.26-45.86.57-.25,1.12-.53,1.65-.84,3.32-1.98,12.82-8.59,16.95-21.69,0,0,19.3,25.47,45.83,27.37,13.82.99,26.8-6.84,32.69-19.38,5.53-11.77,8.9-28.28-6.86-39.6Z"/>
        <path class="cls-4" d="m117.72,5266.92s6.92,12.22-9.66,16.64c-.54.14-1.1.16-1.65.05-2.64-.55-11.32-2-14.41,1.86-1.69,2.11-3.37,5.06-.84,12.65,2.53,7.59-5.48,16.44-6.74,19.81-1.26,3.37-6.32,12.22.84,16.02,6.92,3.66,14.24-2.11,21.57-18.84.75-1.71,1.78-3.28,3.06-4.63,3.33-3.48,10.64-9.38,24.27-12.78,18.79-4.7,18.68-26.76,3.72-28.24-2.3-.23-4.26-1.73-5.03-3.91-3.54-10.09-13.86-35.83-26.09-32.77-15.18,3.79-14.33,25.29-2.95,29.93,11.38,4.64,11.8,2.11,13.91,4.22Z"/>
      </g>
      <g>
        <path class="cls-3" d="m628.76,5266.09s-25.42-4.53-10.96-29.09c9.06-15.39,26.56-9.27,26.56-9.27,0,0,20.73-17.09,2.14-38.47,0,0-28.28-18.44-7.2-34.03s49.32,2.95,50.59,11.38c1.26,8.43,2.95,13.91,13.49,8.85,10.54-5.06,14.75,9.7,15.18,12.22s-.84,12.22,12.22,9.27,11.38,15.18,11.38,15.18l-3.79,42.15-19.2,21.71h-42.23l-21.19,5.69-22.85-5.69-4.13-9.91Z"/>
        <path class="cls-5" d="m719.61,5208.13s8.85-6.74,10.75-10.75c1.9-4,30.09,5.23,29.06,27.38-1.03,22.15-14.52,25.1-14.52,25.1,0,0,18.97,10.54,7.59,40.89-11.38,30.35-64.41,16.86-79.42-9.06,0,0-11.09,34.57-46.99,26.45-35.3-7.98-6.53-41.55,3.26-45.86.57-.25,1.12-.53,1.65-.84,3.32-1.98,12.82-8.59,16.95-21.69,0,0,19.3,25.47,45.83,27.37,13.82.99,26.8-6.84,32.69-19.38,5.53-11.77,8.9-28.28-6.86-39.6Z"/>
        <path class="cls-4" d="m682.72,5207.92s6.92,12.22-9.66,16.64c-.54.14-1.1.16-1.65.05-2.64-.55-11.32-2-14.41,1.86-1.69,2.11-3.37,5.06-.84,12.65,2.53,7.59-5.48,16.44-6.74,19.81-1.26,3.37-6.32,12.22.84,16.02,6.92,3.66,14.24-2.11,21.57-18.84.75-1.71,1.78-3.28,3.06-4.63,3.33-3.48,10.64-9.38,24.27-12.78,18.79-4.7,18.68-26.76,3.72-28.24-2.3-.23-4.26-1.73-5.03-3.91-3.54-10.09-13.86-35.83-26.09-32.77-15.18,3.79-14.33,25.29-2.95,29.93,11.38,4.64,11.8,2.11,13.91,4.22Z"/>
      </g>
      <g>
        <path class="cls-3" d="m454.76,4453.09s-25.42-4.53-10.96-29.09c9.06-15.39,26.56-9.27,26.56-9.27,0,0,20.73-17.09,2.14-38.47,0,0-28.28-18.44-7.2-34.03s49.32,2.95,50.59,11.38c1.26,8.43,2.95,13.91,13.49,8.85,10.54-5.06,14.75,9.7,15.18,12.22s-.84,12.22,12.22,9.27,11.38,15.18,11.38,15.18l-3.79,42.15-19.2,21.71h-42.23l-21.19,5.69-22.85-5.69-4.13-9.91Z"/>
        <path class="cls-5" d="m545.61,4395.13s8.85-6.74,10.75-10.75c1.9-4,30.09,5.23,29.06,27.38-1.03,22.15-14.52,25.1-14.52,25.1,0,0,18.97,10.54,7.59,40.89-11.38,30.35-64.41,16.86-79.42-9.06,0,0-11.09,34.57-46.99,26.45-35.3-7.98-6.53-41.55,3.26-45.86.57-.25,1.12-.53,1.65-.84,3.32-1.98,12.82-8.59,16.95-21.69,0,0,19.3,25.47,45.83,27.37,13.82.99,26.8-6.84,32.69-19.38,5.53-11.77,8.9-28.28-6.86-39.6Z"/>
        <path class="cls-4" d="m508.72,4394.92s6.92,12.22-9.66,16.64c-.54.14-1.1.16-1.65.05-2.64-.55-11.32-2-14.41,1.86-1.69,2.11-3.37,5.06-.84,12.65,2.53,7.59-5.48,16.44-6.74,19.81-1.26,3.37-6.32,12.22.84,16.02,6.92,3.66,14.24-2.11,21.57-18.84.75-1.71,1.78-3.28,3.06-4.63,3.33-3.48,10.64-9.38,24.27-12.78,18.79-4.7,18.68-26.76,3.72-28.24-2.3-.23-4.26-1.73-5.03-3.91-3.54-10.09-13.86-35.83-26.09-32.77-15.18,3.79-14.33,25.29-2.95,29.93,11.38,4.64,11.8,2.11,13.91,4.22Z"/>
      </g>
      <g>
        <path class="cls-3" d="m1321.74,4839.02s14.02-21.69,31.06,1.15c10.68,14.31-1.73,28.08-1.73,28.08,0,0,7.73,25.73,34.65,16.87,0,0,27.94-18.94,34.17,6.53,6.22,25.47-21.81,44.34-30.07,42.24-8.26-2.1-13.97-2.66-13.38,9.01.59,11.68-14.65,9.85-17.15,9.26s-10.95-5.51-13.28,7.68c-2.34,13.19-18.4,4.62-18.4,4.62l-37.4-19.81-12.59-26.11,16.34-38.94,2.96-21.74,14.09-18.87,10.74.02Z"/>
        <path class="cls-5" d="m1340.03,4945.22s2.79,10.77,5.75,14.07c2.96,3.3-16.47,25.72-36.49,16.2-20.03-9.52-17.53-23.1-17.53-23.1,0,0-17.06,13.41-40.64-8.83-23.58-22.24,9.38-65.91,39.09-69.72,0,0-27.58-23.61-6.21-53.56,21.02-29.46,40.84,10.06,41.03,20.75.01.62.05,1.23.14,1.85.54,3.83,2.96,15.14,13.44,24.03,0,0-30.96,7.94-42.97,31.67-6.26,12.36-4.06,27.36,5.22,37.64,8.71,9.65,22.63,19.15,39.17,9Z"/>
        <path class="cls-4" d="m1354.5,4911.29s-13.95,1.66-11.61-15.34c.08-.55.28-1.08.59-1.54,1.53-2.22,6.23-9.66,3.86-14-1.29-2.37-3.36-5.07-11.33-5.67-7.98-.6-13.04-11.42-15.66-13.89-2.62-2.47-8.83-10.56-15.1-5.42-6.06,4.96-3.56,13.94,9.03,27.18,1.28,1.35,2.34,2.91,3.08,4.61,1.93,4.42,4.53,13.44,2.39,27.33-2.94,19.14,17.44,27.58,24.6,14.35,1.1-2.03,3.25-3.26,5.55-3.12,10.68.64,38.4,1.09,40.32-11.37,2.37-15.46-17.77-23-26.46-14.3-8.68,8.7-6.51,10.07-9.27,11.2Z"/>
      </g>
      <g>
        <path class="cls-3" d="m387.1,4753.64s9.47-24.03,30.68-4.99c13.29,11.93,3.84,27.87,3.84,27.87,0,0,12.65,23.7,37.29,9.71,0,0,23.66-24.08,34.78-.33,11.12,23.75-12.64,47.76-21.16,47.34-8.51-.43-14.22.14-11.34,11.47,2.87,11.33-12.42,12.55-14.98,12.46s-11.82-3.24-11.51,10.15-17.13,8.16-17.13,8.16l-40.57-12.05-17.49-23.12,8.35-41.39-1.39-21.9,10.09-21.27,10.53-2.09Z"/>
        <path class="cls-5" d="m425.96,4854.15s4.86,10.01,8.41,12.66c3.55,2.65-11.08,28.46-32.59,23.07-21.51-5.39-21.73-19.19-21.73-19.19,0,0-14.08,16.51-41.58-.65-27.5-17.16-3.79-66.47,24.59-76.06,0,0-31.69-17.71-16.64-51.29,14.8-33.02,42.02,1.82,44.31,12.26.13.61.29,1.2.5,1.78,1.28,3.65,5.89,14.26,17.91,20.91,0,0-28.78,13.88-35.89,39.51-3.7,13.35,1.41,27.62,12.54,35.88,10.44,7.75,25.96,14.32,40.18,1.11Z"/>
        <path class="cls-4" d="m433.46,4818.03s-13.35,4.37-14.4-12.76c-.03-.56.06-1.11.28-1.63,1.06-2.48,4.2-10.7,1.03-14.49-1.73-2.07-4.29-4.31-12.23-3.33-7.94.98-15.03-8.62-18.09-10.53-3.06-1.91-10.73-8.62-15.87-2.34-4.96,6.06-.75,14.37,14.21,24.87,1.53,1.07,2.86,2.39,3.93,3.92,2.76,3.95,7.09,12.29,7.73,26.32.89,19.35,22.54,23.6,26.94,9.23.68-2.21,2.54-3.84,4.83-4.15,10.6-1.47,37.86-6.5,37.28-19.09-.72-15.63-21.96-19.05-28.76-8.81s-4.4,11.15-6.88,12.8Z"/>
      </g>
      <g>
        <path class="cls-3" d="m855.76,4800.09s-25.42-4.53-10.96-29.09c9.06-15.39,26.56-9.27,26.56-9.27,0,0,20.73-17.09,2.14-38.47,0,0-28.28-18.44-7.2-34.03s49.32,2.95,50.59,11.38c1.26,8.43,2.95,13.91,13.49,8.85,10.54-5.06,14.75,9.7,15.18,12.22s-.84,12.22,12.22,9.27,11.38,15.18,11.38,15.18l-3.79,42.15-19.2,21.71h-42.23l-21.19,5.69-22.85-5.69-4.13-9.91Z"/>
        <path class="cls-5" d="m946.61,4742.13s8.85-6.74,10.75-10.75c1.9-4,30.09,5.23,29.06,27.38-1.03,22.15-14.52,25.1-14.52,25.1,0,0,18.97,10.54,7.59,40.89-11.38,30.35-64.41,16.86-79.42-9.06,0,0-11.09,34.57-46.99,26.45-35.3-7.98-6.53-41.55,3.26-45.86.57-.25,1.12-.53,1.65-.84,3.32-1.98,12.82-8.59,16.95-21.69,0,0,19.3,25.47,45.83,27.37,13.82.99,26.8-6.84,32.69-19.38,5.53-11.77,8.9-28.28-6.86-39.6Z"/>
        <path class="cls-4" d="m909.72,4741.92s6.92,12.22-9.66,16.64c-.54.14-1.1.16-1.65.05-2.64-.55-11.32-2-14.41,1.86-1.69,2.11-3.37,5.06-.84,12.65,2.53,7.59-5.48,16.44-6.74,19.81-1.26,3.37-6.32,12.22.84,16.02,6.92,3.66,14.24-2.11,21.57-18.84.75-1.71,1.78-3.28,3.06-4.63,3.33-3.48,10.64-9.38,24.27-12.78,18.79-4.7,18.68-26.76,3.72-28.24-2.3-.23-4.26-1.73-5.03-3.91-3.54-10.09-13.86-35.83-26.09-32.77-15.18,3.79-14.33,25.29-2.95,29.93,11.38,4.64,11.8,2.11,13.91,4.22Z"/>
      </g>
      <g>
        <path class="cls-3" d="m966.76,5054.09s-25.42-4.53-10.96-29.09c9.06-15.39,26.56-9.27,26.56-9.27,0,0,20.73-17.09,2.14-38.47,0,0-28.28-18.44-7.2-34.03s49.32,2.95,50.59,11.38c1.26,8.43,2.95,13.91,13.49,8.85,10.54-5.06,14.75,9.7,15.18,12.22s-.84,12.22,12.22,9.27,11.38,15.18,11.38,15.18l-3.79,42.15-19.2,21.71h-42.23l-21.19,5.69-22.85-5.69-4.13-9.91Z"/>
        <path class="cls-5" d="m1057.61,4996.13s8.85-6.74,10.75-10.75c1.9-4,30.09,5.23,29.06,27.38-1.03,22.15-14.52,25.1-14.52,25.1,0,0,18.97,10.54,7.59,40.89s-64.41,16.86-79.42-9.06c0,0-11.09,34.57-46.99,26.45-35.3-7.98-6.53-41.55,3.26-45.86.57-.25,1.12-.53,1.65-.84,3.32-1.98,12.82-8.59,16.95-21.69,0,0,19.3,25.47,45.83,27.37,13.82.99,26.8-6.84,32.69-19.38,5.53-11.77,8.9-28.28-6.86-39.6Z"/>
        <path class="cls-4" d="m1020.72,4995.92s6.92,12.22-9.66,16.64c-.54.14-1.1.16-1.65.05-2.64-.55-11.32-2-14.41,1.86-1.69,2.11-3.37,5.06-.84,12.65,2.53,7.59-5.48,16.44-6.74,19.81-1.26,3.37-6.32,12.22.84,16.02,6.92,3.66,14.24-2.11,21.57-18.84.75-1.71,1.78-3.28,3.06-4.63,3.33-3.48,10.64-9.38,24.27-12.78,18.79-4.7,18.68-26.76,3.72-28.24-2.3-.23-4.26-1.73-5.03-3.91-3.54-10.09-13.86-35.83-26.09-32.77-15.18,3.79-14.33,25.29-2.95,29.93,11.38,4.64,11.8,2.11,13.91,4.22Z"/>
      </g>
      <g>
        <path class="cls-3" d="m1195.76,3953.09s-25.42-4.53-10.96-29.09c9.06-15.39,26.56-9.27,26.56-9.27,0,0,20.73-17.09,2.14-38.47,0,0-28.28-18.44-7.2-34.03,21.08-15.6,49.32,2.95,50.59,11.38,1.26,8.43,2.95,13.91,13.49,8.85,10.54-5.06,14.75,9.7,15.18,12.22s-.84,12.22,12.22,9.27,11.38,15.18,11.38,15.18l-3.79,42.15-19.2,21.71h-42.23l-21.19,5.69-22.85-5.69-4.13-9.91Z"/>
        <path class="cls-5" d="m1286.61,3895.13s8.85-6.74,10.75-10.75c1.9-4,30.09,5.23,29.06,27.38-1.03,22.15-14.52,25.1-14.52,25.1,0,0,18.97,10.54,7.59,40.89-11.38,30.35-64.41,16.86-79.42-9.06,0,0-11.09,34.57-46.99,26.45-35.3-7.98-6.53-41.55,3.26-45.86.57-.25,1.12-.53,1.65-.84,3.32-1.98,12.82-8.59,16.95-21.69,0,0,19.3,25.47,45.83,27.37,13.82.99,26.8-6.84,32.69-19.38,5.53-11.77,8.9-28.28-6.86-39.6Z"/>
        <path class="cls-4" d="m1249.72,3894.92s6.92,12.22-9.66,16.64c-.54.14-1.1.16-1.65.05-2.64-.55-11.32-2-14.41,1.86-1.69,2.11-3.37,5.06-.84,12.65,2.53,7.59-5.48,16.44-6.74,19.81-1.26,3.37-6.32,12.22.84,16.02,6.92,3.66,14.24-2.11,21.57-18.84.75-1.71,1.78-3.28,3.06-4.63,3.33-3.48,10.64-9.38,24.27-12.78,18.79-4.7,18.68-26.76,3.72-28.24-2.3-.23-4.26-1.73-5.03-3.91-3.54-10.09-13.86-35.83-26.09-32.77-15.18,3.79-14.33,25.29-2.95,29.93,11.38,4.64,11.8,2.11,13.91,4.22Z"/>
      </g>
      <g>
        <path class="cls-3" d="m416.6,5318.7s20.77-15.35,28.66,12.03c4.95,17.16-11.52,25.66-11.52,25.66,0,0-1.84,26.8,26.47,28,0,0,32.83-7.87,29.67,18.16-3.16,26.03-36.04,33.79-43.04,28.92-6.99-4.88-12.13-7.42-15.7,3.71-3.57,11.13-17.18,4.05-19.31,2.62s-8.3-9.02-15.14,2.5c-6.84,11.52-18.85-2.16-18.85-2.16l-28.01-31.73-2.57-28.87,29.03-30.67,10.44-19.3,19.84-12.68,10.04,3.81Z"/>
        <path class="cls-5" d="m396.26,5424.52s-1.19,11.07.42,15.2c1.6,4.13-24.48,18.26-39.86,2.28-15.38-15.97-8.25-27.8-8.25-27.8,0,0-20.69,6.53-34.91-22.6-14.22-29.13,32.02-58.37,61.17-51.45,0,0-17.48-31.82,13.08-52.31,30.06-20.15,34.66,23.82,31.07,33.89-.21.58-.39,1.17-.52,1.78-.85,3.77-2.57,15.21,4.1,27.22,0,0-31.76-3.49-51.38,14.47-10.22,9.36-13.45,24.17-8.39,37.07,4.75,12.11,14.42,25.9,33.48,22.24Z"/>
        <path class="cls-4" d="m421.77,5397.87s-13.63-3.37-5.45-18.45c.27-.49.64-.91,1.1-1.23,2.21-1.54,9.23-6.85,8.55-11.74-.37-2.67-1.36-5.93-8.61-9.31-7.25-3.38-8.17-15.28-9.75-18.52-1.58-3.24-4.53-13-12.21-10.4-7.42,2.51-8.25,11.79-1.14,28.62.73,1.72,1.16,3.54,1.25,5.4.24,4.81-.51,14.18-7.4,26.41-9.5,16.88,6.6,31.96,17.95,22.11,1.74-1.51,4.19-1.9,6.29-.96,9.77,4.37,35.55,14.56,41.74,3.58,7.68-13.63-8.52-27.8-19.71-22.72s-9.64,7.12-12.62,7.21Z"/>
      </g>
      <g>
        <path class="cls-3" d="m721.76,3189.09s-25.42-4.53-10.96-29.09c9.06-15.39,26.56-9.27,26.56-9.27,0,0,20.73-17.09,2.14-38.47,0,0-28.28-18.44-7.2-34.03,21.08-15.6,49.32,2.95,50.59,11.38,1.26,8.43,2.95,13.91,13.49,8.85,10.54-5.06,14.75,9.7,15.18,12.22s-.84,12.22,12.22,9.27,11.38,15.18,11.38,15.18l-3.79,42.15-19.2,21.71h-42.23l-21.19,5.69-22.85-5.69-4.13-9.91Z"/>
        <path class="cls-5" d="m812.61,3131.13s8.85-6.74,10.75-10.75c1.9-4,30.09,5.23,29.06,27.38-1.03,22.15-14.52,25.1-14.52,25.1,0,0,18.97,10.54,7.59,40.89s-64.41,16.86-79.42-9.06c0,0-11.09,34.57-46.99,26.45-35.3-7.98-6.53-41.55,3.26-45.86.57-.25,1.12-.53,1.65-.84,3.32-1.98,12.82-8.59,16.95-21.69,0,0,19.3,25.47,45.83,27.37,13.82.99,26.8-6.84,32.69-19.38,5.53-11.77,8.9-28.28-6.86-39.6Z"/>
        <path class="cls-4" d="m775.72,3130.92s6.92,12.22-9.66,16.64c-.54.14-1.1.16-1.65.05-2.64-.55-11.32-2-14.41,1.86-1.69,2.11-3.37,5.06-.84,12.65,2.53,7.59-5.48,16.44-6.74,19.81-1.26,3.37-6.32,12.22.84,16.02,6.92,3.66,14.24-2.11,21.57-18.84.75-1.71,1.78-3.28,3.06-4.63,3.33-3.48,10.64-9.38,24.27-12.78,18.79-4.7,18.68-26.76,3.72-28.24-2.3-.23-4.26-1.73-5.03-3.91-3.54-10.09-13.86-35.83-26.09-32.77-15.18,3.79-14.33,25.29-2.95,29.93,11.38,4.64,11.8,2.11,13.91,4.22Z"/>
      </g>
      <g>
        <path class="cls-3" d="m1297.76,2799.09s-25.42-4.53-10.96-29.09c9.06-15.39,26.56-9.27,26.56-9.27,0,0,20.73-17.09,2.14-38.47,0,0-28.28-18.44-7.2-34.03,21.08-15.6,49.32,2.95,50.59,11.38,1.26,8.43,2.95,13.91,13.49,8.85,10.54-5.06,14.75,9.7,15.18,12.22s-.84,12.22,12.22,9.27,11.38,15.18,11.38,15.18l-3.79,42.15-19.2,21.71h-42.23l-21.19,5.69-22.85-5.69-4.13-9.91Z"/>
        <path class="cls-5" d="m1388.61,2741.13s8.85-6.74,10.75-10.75c1.9-4,30.09,5.23,29.06,27.38-1.03,22.15-14.52,25.1-14.52,25.1,0,0,18.97,10.54,7.59,40.89s-64.41,16.86-79.42-9.06c0,0-11.09,34.57-46.99,26.45-35.3-7.98-6.53-41.55,3.26-45.86.57-.25,1.12-.53,1.65-.84,3.32-1.98,12.82-8.59,16.95-21.69,0,0,19.3,25.47,45.83,27.37,13.82.99,26.8-6.84,32.69-19.38,5.53-11.77,8.9-28.28-6.86-39.6Z"/>
        <path class="cls-4" d="m1351.72,2740.92s6.92,12.22-9.66,16.64c-.54.14-1.1.16-1.65.05-2.64-.55-11.32-2-14.41,1.86-1.69,2.11-3.37,5.06-.84,12.65,2.53,7.59-5.48,16.44-6.74,19.81-1.26,3.37-6.32,12.22.84,16.02,6.92,3.66,14.24-2.11,21.57-18.84.75-1.71,1.78-3.28,3.06-4.63,3.33-3.48,10.64-9.38,24.27-12.78,18.79-4.7,18.68-26.76,3.72-28.24-2.3-.23-4.26-1.73-5.03-3.91-3.54-10.09-13.86-35.83-26.09-32.77-15.18,3.79-14.33,25.29-2.95,29.93,11.38,4.64,11.8,2.11,13.91,4.22Z"/>
      </g>
      <g>
        <path class="cls-3" d="m114.76,2045.09s-25.42-4.53-10.96-29.09c9.06-15.39,26.56-9.27,26.56-9.27,0,0,20.73-17.09,2.14-38.47,0,0-28.28-18.44-7.2-34.03,21.08-15.6,49.32,2.95,50.59,11.38,1.26,8.43,2.95,13.91,13.49,8.85,10.54-5.06,14.75,9.7,15.18,12.22s-.84,12.22,12.22,9.27,11.38,15.18,11.38,15.18l-3.79,42.15-19.2,21.71h-42.23l-21.19,5.69-22.85-5.69-4.13-9.91Z"/>
        <path class="cls-5" d="m205.61,1987.13s8.85-6.74,10.75-10.75c1.9-4,30.09,5.23,29.06,27.38-1.03,22.15-14.52,25.1-14.52,25.1,0,0,18.97,10.54,7.59,40.89-11.38,30.35-64.41,16.86-79.42-9.06,0,0-11.09,34.57-46.99,26.45-35.3-7.98-6.53-41.55,3.26-45.86.57-.25,1.12-.53,1.65-.84,3.32-1.98,12.82-8.59,16.95-21.69,0,0,19.3,25.47,45.83,27.37,13.82.99,26.8-6.84,32.69-19.38,5.53-11.77,8.9-28.28-6.86-39.6Z"/>
        <path class="cls-4" d="m168.72,1986.92s6.92,12.22-9.66,16.64c-.54.14-1.1.16-1.65.05-2.64-.55-11.32-2-14.41,1.86-1.69,2.11-3.37,5.06-.84,12.65,2.53,7.59-5.48,16.44-6.74,19.81-1.26,3.37-6.32,12.22.84,16.02,6.92,3.66,14.24-2.11,21.57-18.84.75-1.71,1.78-3.28,3.06-4.63,3.33-3.48,10.64-9.38,24.27-12.78,18.79-4.7,18.68-26.76,3.72-28.24-2.3-.23-4.26-1.73-5.03-3.91-3.54-10.09-13.86-35.83-26.09-32.77-15.18,3.79-14.33,25.29-2.95,29.93,11.38,4.64,11.8,2.11,13.91,4.22Z"/>
      </g>
      <g>
        <path class="cls-3" d="m342.76,1198.09s-25.42-4.53-10.96-29.09c9.06-15.39,26.56-9.27,26.56-9.27,0,0,20.73-17.09,2.14-38.47,0,0-28.28-18.44-7.2-34.03s49.32,2.95,50.59,11.38c1.26,8.43,2.95,13.91,13.49,8.85,10.54-5.06,14.75,9.7,15.18,12.22s-.84,12.22,12.22,9.27,11.38,15.18,11.38,15.18l-3.79,42.15-19.2,21.71h-42.23l-21.19,5.69-22.85-5.69-4.13-9.91Z"/>
        <path class="cls-5" d="m433.61,1140.13s8.85-6.74,10.75-10.75c1.9-4,30.09,5.23,29.06,27.38-1.03,22.15-14.52,25.1-14.52,25.1,0,0,18.97,10.54,7.59,40.89-11.38,30.35-64.41,16.86-79.42-9.06,0,0-11.09,34.57-46.99,26.45-35.3-7.98-6.53-41.55,3.26-45.86.57-.25,1.12-.53,1.65-.84,3.32-1.98,12.82-8.59,16.95-21.69,0,0,19.3,25.47,45.83,27.37,13.82.99,26.8-6.84,32.69-19.38,5.53-11.77,8.9-28.28-6.86-39.6Z"/>
        <path class="cls-4" d="m396.72,1139.92s6.92,12.22-9.66,16.64c-.54.14-1.1.16-1.65.05-2.64-.55-11.32-2-14.41,1.86-1.69,2.11-3.37,5.06-.84,12.65,2.53,7.59-5.48,16.44-6.74,19.81-1.26,3.37-6.32,12.22.84,16.02,6.92,3.66,14.24-2.11,21.57-18.84.75-1.71,1.78-3.28,3.06-4.63,3.33-3.48,10.64-9.38,24.27-12.78,18.79-4.7,18.68-26.76,3.72-28.24-2.3-.23-4.26-1.73-5.03-3.91-3.54-10.09-13.86-35.83-26.09-32.77-15.18,3.79-14.33,25.29-2.95,29.93,11.38,4.64,11.8,2.11,13.91,4.22Z"/>
      </g>
      <g>
        <path class="cls-3" d="m1195.76,219.09s-25.42-4.53-10.96-29.09c9.06-15.39,26.56-9.27,26.56-9.27,0,0,20.73-17.09,2.14-38.47,0,0-28.28-18.44-7.2-34.03,21.08-15.6,49.32,2.95,50.59,11.38,1.26,8.43,2.95,13.91,13.49,8.85,10.54-5.06,14.75,9.7,15.18,12.22s-.84,12.22,12.22,9.27,11.38,15.18,11.38,15.18l-3.79,42.15-19.2,21.71h-42.23l-21.19,5.69-22.85-5.69-4.13-9.91Z"/>
        <path class="cls-5" d="m1286.61,161.13s8.85-6.74,10.75-10.75c1.9-4,30.09,5.23,29.06,27.38-1.03,22.15-14.52,25.1-14.52,25.1,0,0,18.97,10.54,7.59,40.89s-64.41,16.86-79.42-9.06c0,0-11.09,34.57-46.99,26.45-35.3-7.98-6.53-41.55,3.26-45.86.57-.25,1.12-.53,1.65-.84,3.32-1.98,12.82-8.59,16.95-21.69,0,0,19.3,25.47,45.83,27.37,13.82.99,26.8-6.84,32.69-19.38,5.53-11.77,8.9-28.28-6.86-39.6Z"/>
        <path class="cls-4" d="m1249.72,160.92s6.92,12.22-9.66,16.64c-.54.14-1.1.16-1.65.05-2.64-.55-11.32-2-14.41,1.86-1.69,2.11-3.37,5.06-.84,12.65,2.53,7.59-5.48,16.44-6.74,19.81-1.26,3.37-6.32,12.22.84,16.02,6.92,3.66,14.24-2.11,21.57-18.84.75-1.71,1.78-3.28,3.06-4.63,3.33-3.48,10.64-9.38,24.27-12.78,18.79-4.7,18.68-26.76,3.72-28.24-2.3-.23-4.26-1.73-5.03-3.91-3.54-10.09-13.86-35.83-26.09-32.77-15.18,3.79-14.33,25.29-2.95,29.93,11.38,4.64,11.8,2.11,13.91,4.22Z"/>
      </g>
      <g>
        <path class="cls-3" d="m393.76,5287.09s-25.42-4.53-10.96-29.09c9.06-15.39,26.56-9.27,26.56-9.27,0,0,20.73-17.09,2.14-38.47,0,0-28.28-18.44-7.2-34.03,21.08-15.6,49.32,2.95,50.59,11.38,1.26,8.43,2.95,13.91,13.49,8.85,10.54-5.06,14.75,9.7,15.18,12.22s-.84,12.22,12.22,9.27,11.38,15.18,11.38,15.18l-3.79,42.15-19.2,21.71h-42.23l-21.19,5.69-22.85-5.69-4.13-9.91Z"/>
        <path class="cls-5" d="m484.61,5229.13s8.85-6.74,10.75-10.75c1.9-4,30.09,5.23,29.06,27.38-1.03,22.15-14.52,25.1-14.52,25.1,0,0,18.97,10.54,7.59,40.89s-64.41,16.86-79.42-9.06c0,0-11.09,34.57-46.99,26.45-35.3-7.98-6.53-41.55,3.26-45.86.57-.25,1.12-.53,1.65-.84,3.32-1.98,12.82-8.59,16.95-21.69,0,0,19.3,25.47,45.83,27.37,13.82.99,26.8-6.84,32.69-19.38,5.53-11.77,8.9-28.28-6.86-39.6Z"/>
        <path class="cls-4" d="m447.72,5228.92s6.92,12.22-9.66,16.64c-.54.14-1.1.16-1.65.05-2.64-.55-11.32-2-14.41,1.86-1.69,2.11-3.37,5.06-.84,12.65,2.53,7.59-5.48,16.44-6.74,19.81-1.26,3.37-6.32,12.22.84,16.02,6.92,3.66,14.24-2.11,21.57-18.84.75-1.71,1.78-3.28,3.06-4.63,3.33-3.48,10.64-9.38,24.27-12.78,18.79-4.7,18.68-26.76,3.72-28.24-2.3-.23-4.26-1.73-5.03-3.91-3.54-10.09-13.86-35.83-26.09-32.77-15.18,3.79-14.33,25.29-2.95,29.93,11.38,4.64,11.8,2.11,13.91,4.22Z"/>
      </g>
      <g>
        <path class="cls-3" d="m770.76,5329.09s-25.42-4.53-10.96-29.09c9.06-15.39,26.56-9.27,26.56-9.27,0,0,20.73-17.09,2.14-38.47,0,0-28.28-18.44-7.2-34.03s49.32,2.95,50.59,11.38c1.26,8.43,2.95,13.91,13.49,8.85,10.54-5.06,14.75,9.7,15.18,12.22s-.84,12.22,12.22,9.27,11.38,15.18,11.38,15.18l-3.79,42.15-19.2,21.71h-42.23l-21.19,5.69-22.85-5.69-4.13-9.91Z"/>
        <path class="cls-5" d="m861.61,5271.13s8.85-6.74,10.75-10.75c1.9-4,30.09,5.23,29.06,27.38-1.03,22.15-14.52,25.1-14.52,25.1,0,0,18.97,10.54,7.59,40.89s-64.41,16.86-79.42-9.06c0,0-11.09,34.57-46.99,26.45-35.3-7.98-6.53-41.55,3.26-45.86.57-.25,1.12-.53,1.65-.84,3.32-1.98,12.82-8.59,16.95-21.69,0,0,19.3,25.47,45.83,27.37,13.82.99,26.8-6.84,32.69-19.38,5.53-11.77,8.9-28.28-6.86-39.6Z"/>
        <path class="cls-4" d="m824.72,5270.92s6.92,12.22-9.66,16.64c-.54.14-1.1.16-1.65.05-2.64-.55-11.32-2-14.41,1.86-1.69,2.11-3.37,5.06-.84,12.65,2.53,7.59-5.48,16.44-6.74,19.81-1.26,3.37-6.32,12.22.84,16.02,6.92,3.66,14.24-2.11,21.57-18.84.75-1.71,1.78-3.28,3.06-4.63,3.33-3.48,10.64-9.38,24.27-12.78,18.79-4.7,18.68-26.76,3.72-28.24-2.3-.23-4.26-1.73-5.03-3.91-3.54-10.09-13.86-35.83-26.09-32.77-15.18,3.79-14.33,25.29-2.95,29.93,11.38,4.64,11.8,2.11,13.91,4.22Z"/>
      </g>
      <g>
        <path class="cls-3" d="m1074.76,5208.09s-25.42-4.53-10.96-29.09c9.06-15.39,26.56-9.27,26.56-9.27,0,0,20.73-17.09,2.14-38.47,0,0-28.28-18.44-7.2-34.03s49.32,2.95,50.59,11.38c1.26,8.43,2.95,13.91,13.49,8.85,10.54-5.06,14.75,9.7,15.18,12.22s-.84,12.22,12.22,9.27,11.38,15.18,11.38,15.18l-3.79,42.15-19.2,21.71h-42.23l-21.19,5.69-22.85-5.69-4.13-9.91Z"/>
        <path class="cls-5" d="m1165.61,5150.13s8.85-6.74,10.75-10.75c1.9-4,30.09,5.23,29.06,27.38-1.03,22.15-14.52,25.1-14.52,25.1,0,0,18.97,10.54,7.59,40.89s-64.41,16.86-79.42-9.06c0,0-11.09,34.57-46.99,26.45-35.3-7.98-6.53-41.55,3.26-45.86.57-.25,1.12-.53,1.65-.84,3.32-1.98,12.82-8.59,16.95-21.69,0,0,19.3,25.47,45.83,27.37,13.82.99,26.8-6.84,32.69-19.38,5.53-11.77,8.9-28.28-6.86-39.6Z"/>
        <path class="cls-4" d="m1128.72,5149.92s6.92,12.22-9.66,16.64c-.54.14-1.1.16-1.65.05-2.64-.55-11.32-2-14.41,1.86-1.69,2.11-3.37,5.06-.84,12.65,2.53,7.59-5.48,16.44-6.74,19.81-1.26,3.37-6.32,12.22.84,16.02,6.92,3.66,14.24-2.11,21.57-18.84.75-1.71,1.78-3.28,3.06-4.63,3.33-3.48,10.64-9.38,24.27-12.78,18.79-4.7,18.68-26.76,3.72-28.24-2.3-.23-4.26-1.73-5.03-3.91-3.54-10.09-13.86-35.83-26.09-32.77-15.18,3.79-14.33,25.29-2.95,29.93,11.38,4.64,11.8,2.11,13.91,4.22Z"/>
      </g>
      <g>
        <path class="cls-3" d="m1085.76,5470.09s-25.42-4.53-10.96-29.09c9.06-15.39,26.56-9.27,26.56-9.27,0,0,20.73-17.09,2.14-38.47,0,0-28.28-18.44-7.2-34.03,21.08-15.6,49.32,2.95,50.59,11.38,1.26,8.43,2.95,13.91,13.49,8.85,10.54-5.06,14.75,9.7,15.18,12.22s-.84,12.22,12.22,9.27,11.38,15.18,11.38,15.18l-3.79,42.15-19.2,21.71h-42.23l-21.19,5.69-22.85-5.69-4.13-9.91Z"/>
        <path class="cls-5" d="m1176.61,5412.13s8.85-6.74,10.75-10.75c1.9-4,30.09,5.23,29.06,27.38-1.03,22.15-14.52,25.1-14.52,25.1,0,0,18.97,10.54,7.59,40.89s-64.41,16.86-79.42-9.06c0,0-11.09,34.57-46.99,26.45-35.3-7.98-6.53-41.55,3.26-45.86.57-.25,1.12-.53,1.65-.84,3.32-1.98,12.82-8.59,16.95-21.69,0,0,19.3,25.47,45.83,27.37,13.82.99,26.8-6.84,32.69-19.38,5.53-11.77,8.9-28.28-6.86-39.6Z"/>
        <path class="cls-4" d="m1139.72,5411.92s6.92,12.22-9.66,16.64c-.54.14-1.1.16-1.65.05-2.64-.55-11.32-2-14.41,1.86-1.69,2.11-3.37,5.06-.84,12.65,2.53,7.59-5.48,16.44-6.74,19.81-1.26,3.37-6.32,12.22.84,16.02,6.92,3.66,14.24-2.11,21.57-18.84.75-1.71,1.78-3.28,3.06-4.63,3.33-3.48,10.64-9.38,24.27-12.78,18.79-4.7,18.68-26.76,3.72-28.24-2.3-.23-4.26-1.73-5.03-3.91-3.54-10.09-13.86-35.83-26.09-32.77-15.18,3.79-14.33,25.29-2.95,29.93,11.38,4.64,11.8,2.11,13.91,4.22Z"/>
      </g>
      <g>
        <path class="cls-3" d="m1382.76,5318.09s-25.42-4.53-10.96-29.09c9.06-15.39,26.56-9.27,26.56-9.27,0,0,20.73-17.09,2.14-38.47,0,0-28.28-18.44-7.2-34.03,21.08-15.6,49.32,2.95,50.59,11.38,1.26,8.43,2.95,13.91,13.49,8.85,10.54-5.06,14.75,9.7,15.18,12.22s-.84,12.22,12.22,9.27,11.38,15.18,11.38,15.18l-3.79,42.15-19.2,21.71h-42.23l-21.19,5.69-22.85-5.69-4.13-9.91Z"/>
        <path class="cls-5" d="m1473.61,5260.13s8.85-6.74,10.75-10.75c1.9-4,30.09,5.23,29.06,27.38-1.03,22.15-14.52,25.1-14.52,25.1,0,0,18.97,10.54,7.59,40.89s-64.41,16.86-79.42-9.06c0,0-11.09,34.57-46.99,26.45-35.3-7.98-6.53-41.55,3.26-45.86.57-.25,1.12-.53,1.65-.84,3.32-1.98,12.82-8.59,16.95-21.69,0,0,19.3,25.47,45.83,27.37,13.82.99,26.8-6.84,32.69-19.38,5.53-11.77,8.9-28.28-6.86-39.6Z"/>
        <path class="cls-4" d="m1436.72,5259.92s6.92,12.22-9.66,16.64c-.54.14-1.1.16-1.65.05-2.64-.55-11.32-2-14.41,1.86-1.69,2.11-3.37,5.06-.84,12.65,2.53,7.59-5.48,16.44-6.74,19.81-1.26,3.37-6.32,12.22.84,16.02,6.92,3.66,14.24-2.11,21.57-18.84.75-1.71,1.78-3.28,3.06-4.63,3.33-3.48,10.64-9.38,24.27-12.78,18.79-4.7,18.68-26.76,3.72-28.24-2.3-.23-4.26-1.73-5.03-3.91-3.54-10.09-13.86-35.83-26.09-32.77-15.18,3.79-14.33,25.29-2.95,29.93,11.38,4.64,11.8,2.11,13.91,4.22Z"/>
      </g>
      <g>
        <path class="cls-3" d="m607.76,5497.09s-25.42-4.53-10.96-29.09c9.06-15.39,26.56-9.27,26.56-9.27,0,0,20.73-17.09,2.14-38.47,0,0-28.28-18.44-7.2-34.03,21.08-15.6,49.32,2.95,50.59,11.38,1.26,8.43,2.95,13.91,13.49,8.85,10.54-5.06,14.75,9.7,15.18,12.22s-.84,12.22,12.22,9.27,11.38,15.18,11.38,15.18l-3.79,42.15-19.2,21.71h-42.23l-21.19,5.69-22.85-5.69-4.13-9.91Z"/>
        <path class="cls-5" d="m698.61,5439.13s8.85-6.74,10.75-10.75c1.9-4,30.09,5.23,29.06,27.38-1.03,22.15-14.52,25.1-14.52,25.1,0,0,18.97,10.54,7.59,40.89s-64.41,16.86-79.42-9.06c0,0-11.09,34.57-46.99,26.45-35.3-7.98-6.53-41.55,3.26-45.86.57-.25,1.12-.53,1.65-.84,3.32-1.98,12.82-8.59,16.95-21.69,0,0,19.3,25.47,45.83,27.37,13.82.99,26.8-6.84,32.69-19.38,5.53-11.77,8.9-28.28-6.86-39.6Z"/>
        <path class="cls-4" d="m661.72,5438.92s6.92,12.22-9.66,16.64c-.54.14-1.1.16-1.65.05-2.64-.55-11.32-2-14.41,1.86-1.69,2.11-3.37,5.06-.84,12.65,2.53,7.59-5.48,16.44-6.74,19.81-1.26,3.37-6.32,12.22.84,16.02,6.92,3.66,14.24-2.11,21.57-18.84.75-1.71,1.78-3.28,3.06-4.63,3.33-3.48,10.64-9.38,24.27-12.78,18.79-4.7,18.68-26.76,3.72-28.24-2.3-.23-4.26-1.73-5.03-3.91-3.54-10.09-13.86-35.83-26.09-32.77-15.18,3.79-14.33,25.29-2.95,29.93,11.38,4.64,11.8,2.11,13.91,4.22Z"/>
      </g>
      <g>
        <path class="cls-3" d="m1239.76,5079.09s-25.42-4.53-10.96-29.09c9.06-15.39,26.56-9.27,26.56-9.27,0,0,20.73-17.09,2.14-38.47,0,0-28.28-18.44-7.2-34.03,21.08-15.6,49.32,2.95,50.59,11.38,1.26,8.43,2.95,13.91,13.49,8.85,10.54-5.06,14.75,9.7,15.18,12.22s-.84,12.22,12.22,9.27,11.38,15.18,11.38,15.18l-3.79,42.15-19.2,21.71h-42.23l-21.19,5.69-22.85-5.69-4.13-9.91Z"/>
        <path class="cls-5" d="m1330.61,5021.13s8.85-6.74,10.75-10.75c1.9-4,30.09,5.23,29.06,27.38-1.03,22.15-14.52,25.1-14.52,25.1,0,0,18.97,10.54,7.59,40.89s-64.41,16.86-79.42-9.06c0,0-11.09,34.57-46.99,26.45-35.3-7.98-6.53-41.55,3.26-45.86.57-.25,1.12-.53,1.65-.84,3.32-1.98,12.82-8.59,16.95-21.69,0,0,19.3,25.47,45.83,27.37,13.82.99,26.8-6.84,32.69-19.38,5.53-11.77,8.9-28.28-6.86-39.6Z"/>
        <path class="cls-4" d="m1293.72,5020.92s6.92,12.22-9.66,16.64c-.54.14-1.1.16-1.65.05-2.64-.55-11.32-2-14.41,1.86-1.69,2.11-3.37,5.06-.84,12.65,2.53,7.59-5.48,16.44-6.74,19.81-1.26,3.37-6.32,12.22.84,16.02,6.92,3.66,14.24-2.11,21.57-18.84.75-1.71,1.78-3.28,3.06-4.63,3.33-3.48,10.64-9.38,24.27-12.78,18.79-4.7,18.68-26.76,3.72-28.24-2.3-.23-4.26-1.73-5.03-3.91-3.54-10.09-13.86-35.83-26.09-32.77-15.18,3.79-14.33,25.29-2.95,29.93,11.38,4.64,11.8,2.11,13.91,4.22Z"/>
      </g>
      <g>
        <path class="cls-3" d="m217.53,5089.74s-4.53,25.42-29.09,10.96c-15.39-9.06-9.27-26.56-9.27-26.56,0,0-17.09-20.73-38.47-2.14,0,0-18.44,28.28-34.03,7.2-15.6-21.08,2.95-49.32,11.38-50.59,8.43-1.26,13.91-2.95,8.85-13.49-5.06-10.54,9.7-14.75,12.22-15.18s12.22.84,9.27-12.22,15.18-11.38,15.18-11.38l42.15,3.79,21.71,19.2v42.23l5.69,21.19-5.69,22.85-9.91,4.13Z"/>
        <path class="cls-5" d="m159.57,4998.89s-6.74-8.85-10.75-10.75c-4-1.9,5.23-30.09,27.38-29.06,22.15,1.03,25.1,14.52,25.1,14.52,0,0,10.54-18.97,40.89-7.59,30.35,11.38,16.86,64.41-9.06,79.42,0,0,34.57,11.09,26.45,46.99-7.98,35.3-41.55,6.53-45.86-3.26-.25-.57-.53-1.12-.84-1.65-1.98-3.32-8.59-12.82-21.69-16.95,0,0,25.47-19.3,27.37-45.83.99-13.82-6.84-26.8-19.38-32.69-11.77-5.53-28.28-8.9-39.6,6.86Z"/>
        <path class="cls-4" d="m159.36,5035.78s12.22-6.92,16.64,9.66c.14.54.16,1.1.05,1.65-.55,2.64-2,11.32,1.86,14.41,2.11,1.69,5.06,3.37,12.65.84,7.59-2.53,16.44,5.48,19.81,6.74,3.37,1.26,12.22,6.32,16.02-.84,3.66-6.92-2.11-14.24-18.84-21.57-1.71-.75-3.28-1.78-4.63-3.06-3.48-3.33-9.38-10.64-12.78-24.27-4.7-18.79-26.76-18.68-28.24-3.72-.23,2.3-1.73,4.26-3.91,5.03-10.09,3.54-35.83,13.86-32.77,26.09,3.79,15.18,25.29,14.33,29.93,2.95,4.64-11.38,2.11-11.8,4.22-13.91Z"/>
      </g>
      <g>
        <path class="cls-3" d="m728.76,5203.09s-25.42-4.53-10.96-29.09c9.06-15.39,26.56-9.27,26.56-9.27,0,0,20.73-17.09,2.14-38.47,0,0-28.28-18.44-7.2-34.03,21.08-15.6,49.32,2.95,50.59,11.38,1.26,8.43,2.95,13.91,13.49,8.85,10.54-5.06,14.75,9.7,15.18,12.22s-.84,12.22,12.22,9.27,11.38,15.18,11.38,15.18l-3.79,42.15-19.2,21.71h-42.23l-21.19,5.69-22.85-5.69-4.13-9.91Z"/>
        <path class="cls-5" d="m819.61,5145.13s8.85-6.74,10.75-10.75c1.9-4,30.09,5.23,29.06,27.38-1.03,22.15-14.52,25.1-14.52,25.1,0,0,18.97,10.54,7.59,40.89s-64.41,16.86-79.42-9.06c0,0-11.09,34.57-46.99,26.45-35.3-7.98-6.53-41.55,3.26-45.86.57-.25,1.12-.53,1.65-.84,3.32-1.98,12.82-8.59,16.95-21.69,0,0,19.3,25.47,45.83,27.37,13.82.99,26.8-6.84,32.69-19.38,5.53-11.77,8.9-28.28-6.86-39.6Z"/>
        <path class="cls-4" d="m782.72,5144.92s6.92,12.22-9.66,16.64c-.54.14-1.1.16-1.65.05-2.64-.55-11.32-2-14.41,1.86-1.69,2.11-3.37,5.06-.84,12.65,2.53,7.59-5.48,16.44-6.74,19.81-1.26,3.37-6.32,12.22.84,16.02,6.92,3.66,14.24-2.11,21.57-18.84.75-1.71,1.78-3.28,3.06-4.63,3.33-3.48,10.64-9.38,24.27-12.78,18.79-4.7,18.68-26.76,3.72-28.24-2.3-.23-4.26-1.73-5.03-3.91-3.54-10.09-13.86-35.83-26.09-32.77-15.18,3.79-14.33,25.29-2.95,29.93,11.38,4.64,11.8,2.11,13.91,4.22Z"/>
      </g>
      <g>
        <path class="cls-3" d="m1319.61,5224.99s28.24-8.96,37.84,21.07c.7,2.19,1.04,4.48.97,6.78-.16,5.07-1.52,14.19-8.56,20.13-.97.81-.59,2.35.64,2.63,5.67,1.27,16.18,5.99,19.76,23.41,3.33,16.2-3.36,20.2-8.18,21.06-1.28.23-1.66,1.85-.64,2.65,4.49,3.53,11.39,10.49,11,19.73-.58,13.63-14.76,10.35-10.22,20.11,4.54,9.76,16.26-3.34,16.26-3.34,0,0,13.44-12.33,22.29,6.11,8.85,18.44-14.95,72.75-65.69,36.51l-18.75,4.46-26.67-14.78-17.12-50.51-11.77-82,20.6-31.24,38.26-2.79Z"/>
        <path class="cls-5" d="m1333.88,5224.59s-4.82,9.43-3.15,17.53c1.66,8.1-41.67-30.28-57.7,6.78-16.03,37.06,20.78,68.33,20.78,68.33,0,0-20.89,38.05.3,59.03,21.19,20.97,36.97-.84,36.97-.84l4.7,31.11s0,27.45-38.19,15.44c-16.24-5.11-26.51-40.21-25.37-47.74.29-1.92-1.73-3.31-3.45-2.41-8.43,4.45-25.3,9.83-36.68-9.85-15.71-27.17,7.51-53.88,7.51-53.88,0,0-42.33-33.52-21.45-71.57,17.27-31.46,41.5-11.35,49.38-3.44,1.2,1.21,3.24.77,3.81-.83,4.34-12.02,19.96-49.46,43.24-40.01,0,0,14.62,5.44,11.18,29.78l8.12,2.55Z"/>
        <path class="cls-4" d="m1327.97,5273.92s-7.56-20.4-28.96-17.69c-21.39,2.7-12.58,12.71-10.3,15.62s12.38,10.96,10.18,24.92-2.69,44.45,5.45,51.22c8.14,6.77,17.24,9.97,24.97-1.75,0,0,2.53-12.34-1.71-16.53,0,0,23.35-1.42,17.73-20.52s-16-20.35-16-20.35c0,0,1.58-8.77-1.37-14.91Z"/>
      </g>
    </g>
  </g>
</svg>