<svg width="369" height="40" viewBox="0 0 369 40" fill="none" xmlns="http://www.w3.org/2000/svg">
<rect x="4.05493" width="360.44" height="40" fill="#1F4B63"/>
<rect y="8.5" width="50.2494" height="23" rx="3" fill="#FFFEFA"/>
<rect x="52.9738" y="8.5" width="50.5521" height="23" rx="3" fill="#FFFEFA"/>
<rect x="106.25" y="8.5" width="50.2494" height="23" rx="3" fill="#FFFEFA"/>
<rect x="159.224" y="8.5" width="50.5521" height="23" rx="3" fill="#FFFEFA"/>
<rect x="212.5" y="8.5" width="50.2494" height="23" rx="3" fill="#FFFEFA"/>
<rect x="265.474" y="8.5" width="50.5521" height="23" rx="3" fill="#FFFEFA"/>
<rect x="318.751" y="8.5" width="50.2494" height="23" rx="3" fill="#FFFEFA"/>
<rect x="6.7583" y="2" width="6.30769" height="4.5" fill="#FFFEFA"/>
<rect x="17.5714" y="2" width="5.85714" height="4.5" fill="#FFFEFA"/>
<rect x="27.934" y="2" width="6.30769" height="4.5" fill="#FFFEFA"/>
<rect x="38.7472" y="2" width="5.85714" height="4.5" fill="#FFFEFA"/>
<rect x="49.1099" y="2" width="6.30769" height="4.5" fill="#FFFEFA"/>
<rect x="59.9231" y="2" width="5.85714" height="4.5" fill="#FFFEFA"/>
<rect x="70.2856" y="2" width="6.30769" height="4.5" fill="#FFFEFA"/>
<rect x="81.0988" y="2" width="5.85714" height="4.5" fill="#FFFEFA"/>
<rect x="91.4614" y="2" width="6.30769" height="4.5" fill="#FFFEFA"/>
<rect x="102.275" y="2" width="5.85714" height="4.5" fill="#FFFEFA"/>
<rect x="112.637" y="2" width="6.30769" height="4.5" fill="#FFFEFA"/>
<rect x="123.451" y="2" width="5.85714" height="4.5" fill="#FFFEFA"/>
<rect x="133.813" y="2" width="6.30769" height="4.5" fill="#FFFEFA"/>
<rect x="144.626" y="2" width="6.30769" height="4.5" fill="#FFFEFA"/>
<rect x="154.989" y="2" width="6.30769" height="4.5" fill="#FFFEFA"/>
<rect x="165.802" y="2" width="6.30769" height="4.5" fill="#FFFEFA"/>
<rect x="176.165" y="2" width="6.30769" height="4.5" fill="#FFFEFA"/>
<rect x="186.978" y="2" width="6.30769" height="4.5" fill="#FFFEFA"/>
<rect x="197.341" y="2" width="6.30769" height="4.5" fill="#FFFEFA"/>
<rect x="208.154" y="2" width="6.30769" height="4.5" fill="#FFFEFA"/>
<rect x="218.516" y="2" width="6.30769" height="4.5" fill="#FFFEFA"/>
<rect x="229.33" y="2" width="6.30769" height="4.5" fill="#FFFEFA"/>
<rect x="240.143" y="2" width="5.85714" height="4.5" fill="#FFFEFA"/>
<rect x="250.505" y="2" width="6.30769" height="4.5" fill="#FFFEFA"/>
<rect x="261.319" y="2" width="5.85714" height="4.5" fill="#FFFEFA"/>
<rect x="271.681" y="2" width="6.30769" height="4.5" fill="#FFFEFA"/>
<rect x="282.495" y="2" width="5.85714" height="4.5" fill="#FFFEFA"/>
<rect x="292.857" y="2" width="6.30769" height="4.5" fill="#FFFEFA"/>
<rect x="303.67" y="2" width="5.85714" height="4.5" fill="#FFFEFA"/>
<rect x="314.033" y="2" width="6.30769" height="4.5" fill="#FFFEFA"/>
<rect x="324.846" y="2" width="5.85714" height="4.5" fill="#FFFEFA"/>
<rect x="335.209" y="2" width="6.30769" height="4.5" fill="#FFFEFA"/>
<rect x="346.022" y="2" width="5.85714" height="4.5" fill="#FFFEFA"/>
<rect x="356.385" y="2" width="6.30769" height="4.5" fill="#FFFEFA"/>
<rect x="6.7583" y="33.5002" width="6.30769" height="4.5" fill="#FFFEFA"/>
<rect x="17.5714" y="33.5002" width="5.85714" height="4.5" fill="#FFFEFA"/>
<rect x="27.934" y="33.5002" width="6.30769" height="4.5" fill="#FFFEFA"/>
<rect x="38.7472" y="33.5002" width="5.85714" height="4.5" fill="#FFFEFA"/>
<rect x="49.1099" y="33.5002" width="6.30769" height="4.5" fill="#FFFEFA"/>
<rect x="59.9231" y="33.5002" width="5.85714" height="4.5" fill="#FFFEFA"/>
<rect x="70.2856" y="33.5002" width="6.30769" height="4.5" fill="#FFFEFA"/>
<rect x="81.0988" y="33.5002" width="5.85714" height="4.5" fill="#FFFEFA"/>
<rect x="91.4614" y="33.5002" width="6.30769" height="4.5" fill="#FFFEFA"/>
<rect x="102.275" y="33.5002" width="5.85714" height="4.5" fill="#FFFEFA"/>
<rect x="112.637" y="33.5002" width="6.30769" height="4.5" fill="#FFFEFA"/>
<rect x="123.451" y="33.5002" width="5.85714" height="4.5" fill="#FFFEFA"/>
<rect x="133.813" y="33.5002" width="6.30769" height="4.5" fill="#FFFEFA"/>
<rect x="144.626" y="33.5002" width="6.30769" height="4.5" fill="#FFFEFA"/>
<rect x="154.989" y="33.5002" width="6.30769" height="4.5" fill="#FFFEFA"/>
<rect x="165.802" y="33.5002" width="6.30769" height="4.5" fill="#FFFEFA"/>
<rect x="176.165" y="33.5002" width="6.30769" height="4.5" fill="#FFFEFA"/>
<rect x="186.978" y="33.5002" width="6.30769" height="4.5" fill="#FFFEFA"/>
<rect x="197.341" y="33.5002" width="6.30769" height="4.5" fill="#FFFEFA"/>
<rect x="208.154" y="33.5002" width="6.30769" height="4.5" fill="#FFFEFA"/>
<rect x="218.516" y="33.5002" width="6.30769" height="4.5" fill="#FFFEFA"/>
<rect x="229.33" y="33.5002" width="6.30769" height="4.5" fill="#FFFEFA"/>
<rect x="240.143" y="33.5002" width="5.85714" height="4.5" fill="#FFFEFA"/>
<rect x="250.505" y="33.5002" width="6.30769" height="4.5" fill="#FFFEFA"/>
<rect x="261.319" y="33.5002" width="5.85714" height="4.5" fill="#FFFEFA"/>
<rect x="271.681" y="33.5002" width="6.30769" height="4.5" fill="#FFFEFA"/>
<rect x="282.495" y="33.5002" width="5.85714" height="4.5" fill="#FFFEFA"/>
<rect x="292.857" y="33.5002" width="6.30769" height="4.5" fill="#FFFEFA"/>
<rect x="303.67" y="33.5002" width="5.85714" height="4.5" fill="#FFFEFA"/>
<rect x="314.033" y="33.5002" width="6.30769" height="4.5" fill="#FFFEFA"/>
<rect x="324.846" y="33.5002" width="5.85714" height="4.5" fill="#FFFEFA"/>
<rect x="335.209" y="33.5002" width="6.30769" height="4.5" fill="#FFFEFA"/>
<rect x="346.022" y="33.5002" width="5.85714" height="4.5" fill="#FFFEFA"/>
<rect x="356.385" y="33.5002" width="6.30769" height="4.5" fill="#FFFEFA"/>
</svg>
