<?xml version="1.0" encoding="UTF-8"?>
<svg id="Layer_2" data-name="Layer 2" xmlns="http://www.w3.org/2000/svg" viewBox="0 0 216 230">
  <defs>
    <style>
      .cls-1 {
        fill: #fbf7d0;
      }

      .cls-2 {
        fill: #fbde96;
      }

      .cls-3 {
        fill: #faf0bb;
      }
    </style>
  </defs>
  <g id="Layer_1-2" data-name="Layer 1">
    <path class="cls-1" d="m28.38,167.85s-36.5-6.51-15.74-41.76c13.01-22.09,38.13-13.32,38.13-13.32,0,0,29.76-24.53,3.08-55.24,0,0-40.6-26.47-10.34-48.86,30.26-22.39,70.81,4.24,72.63,16.34s4.24,19.97,19.37,12.71,21.18,13.92,21.79,17.55-1.21,17.55,17.55,13.32,16.34,21.79,16.34,21.79l-5.45,60.52-27.57,31.17h-60.63l-30.43,8.17-32.8-8.17-5.93-14.23Z"/>
    <path class="cls-3" d="m158.81,84.63s12.71-9.68,15.43-15.43c2.72-5.75,43.19,7.51,41.72,39.31s-20.84,36.04-20.84,36.04c0,0,27.24,15.13,10.89,58.71s-92.47,24.21-114.02-13.01c0,0-15.93,49.63-67.46,37.98-50.68-11.46-9.37-59.65,4.68-65.85.81-.36,1.6-.75,2.37-1.21,4.77-2.84,18.4-12.34,24.34-31.14,0,0,27.71,36.57,65.8,39.3,19.84,1.42,38.47-9.82,46.94-27.83,7.94-16.9,12.78-40.6-9.85-56.86Z"/>
    <path class="cls-2" d="m105.85,84.33s9.94,17.54-13.86,23.89c-.77.21-1.59.24-2.37.07-3.79-.79-16.25-2.87-20.68,2.67-2.42,3.03-4.84,7.26-1.21,18.16s-7.87,23.6-9.68,28.45-9.08,17.55,1.21,23,20.44-3.03,30.96-27.05c1.07-2.45,2.55-4.71,4.4-6.64,4.78-5,15.28-13.46,34.85-18.35,26.98-6.74,26.82-38.42,5.33-40.54-3.3-.33-6.12-2.49-7.22-5.61-5.08-14.49-19.89-51.44-37.46-47.05-21.79,5.45-20.58,36.31-4.24,42.97,16.34,6.66,16.95,3.03,19.97,6.05Z"/>
  </g>
</svg>