<?xml version="1.0" encoding="UTF-8"?>
<svg id="Layer_2" data-name="Layer 2" xmlns="http://www.w3.org/2000/svg" viewBox="0 0 685 400">
  <defs>
    <style>
      .cls-1 {
        fill: #ecc76a;
      }

      .cls-2 {
        fill: #bd332b;
      }
    </style>
  </defs>
  <g id="Layer_1-2" data-name="Layer 1">
    <path class="cls-2" d="m0,0v400h685V0H0Zm640,355H45V45h595v310Z"/>
    <circle class="cls-1" cx="22.87" cy="23" r="9"/>
    <circle class="cls-1" cx="22.38" cy="377.15" r="9"/>
    <circle class="cls-1" cx="22.39" cy="326.56" r="9"/>
    <circle class="cls-1" cx="22.39" cy="275.97" r="9"/>
    <circle class="cls-1" cx="22.39" cy="225.37" r="9"/>
    <circle class="cls-1" cx="22.39" cy="174.78" r="9"/>
    <circle class="cls-1" cx="22.39" cy="124.19" r="9"/>
    <circle class="cls-1" cx="22.39" cy="73.59" r="9"/>
    <circle class="cls-1" cx="268.39" cy="23.19" r="9"/>
    <circle class="cls-1" cx="662.39" cy="326.56" r="9"/>
    <circle class="cls-1" cx="662.39" cy="275.97" r="9"/>
    <circle class="cls-1" cx="662.39" cy="225.37" r="9"/>
    <circle class="cls-1" cx="662.39" cy="174.78" r="9"/>
    <circle class="cls-1" cx="662.39" cy="124.19" r="9"/>
    <circle class="cls-1" cx="662.39" cy="73.59" r="9"/>
    <circle class="cls-1" cx="416.29" cy="377.32" r="9"/>
    <circle class="cls-1" cx="71.62" cy="376.83" r="9"/>
    <circle class="cls-1" cx="120.86" cy="376.84" r="9"/>
    <circle class="cls-1" cx="170.1" cy="376.84" r="9"/>
    <circle class="cls-1" cx="219.33" cy="376.84" r="9"/>
    <circle class="cls-1" cx="268.57" cy="376.84" r="9"/>
    <circle class="cls-1" cx="317.81" cy="376.84" r="9"/>
    <circle class="cls-1" cx="367.05" cy="376.84" r="9"/>
    <circle class="cls-1" cx="465.52" cy="376.83" r="9"/>
    <circle class="cls-1" cx="514.76" cy="376.84" r="9"/>
    <circle class="cls-1" cx="564" cy="376.84" r="9"/>
    <circle class="cls-1" cx="613.24" cy="376.84" r="9"/>
    <circle class="cls-1" cx="662.48" cy="376.84" r="9"/>
    <circle class="cls-1" cx="416.29" cy="23.32" r="9"/>
    <circle class="cls-1" cx="71.62" cy="22.83" r="9"/>
    <circle class="cls-1" cx="120.86" cy="22.84" r="9"/>
    <circle class="cls-1" cx="170.1" cy="22.84" r="9"/>
    <circle class="cls-1" cx="219.33" cy="22.84" r="9"/>
    <circle class="cls-1" cx="317.81" cy="22.84" r="9"/>
    <circle class="cls-1" cx="367.05" cy="22.84" r="9"/>
    <circle class="cls-1" cx="465.52" cy="22.83" r="9"/>
    <circle class="cls-1" cx="514.76" cy="22.84" r="9"/>
    <circle class="cls-1" cx="564" cy="22.84" r="9"/>
    <circle class="cls-1" cx="613.24" cy="22.84" r="9"/>
    <circle class="cls-1" cx="662.48" cy="22.84" r="9"/>
  </g>
</svg>