<?xml version="1.0" encoding="UTF-8"?>
<svg id="Layer_2" data-name="Layer 2" xmlns="http://www.w3.org/2000/svg" viewBox="0 0 1080 531.21">
  <defs>
    <style>
      .cls-1 {
        fill: #ecc76a;
      }

      .cls-2 {
        fill: #bd332b;
      }
    </style>
  </defs>
  <g id="Layer_1-2" data-name="Layer 1">
    <g>
      <path d="m359.49,70.72c.13.06.27.18.42.38l22.41,30c-.05-.49-.07-.96-.07-1.42v-29.04h2.2v34.62h-1.2c-.38,0-.68-.16-.91-.49l-22.51-30.04c.05.49.07.95.07,1.39v29.14h-2.18v-34.62h1.22c.23,0,.41.03.54.09Z"/>
      <path d="m424.86,87.93c0,2.68-.4,5.1-1.2,7.28-.8,2.18-1.92,4.04-3.38,5.58-1.45,1.54-3.19,2.73-5.21,3.57-2.02.84-4.27,1.26-6.73,1.26s-4.66-.42-6.68-1.26c-2.02-.84-3.76-2.03-5.21-3.57-1.45-1.54-2.58-3.4-3.39-5.58-.81-2.18-1.21-4.6-1.21-7.28s.4-5.08,1.21-7.25c.81-2.18,1.94-4.04,3.39-5.58,1.45-1.54,3.19-2.74,5.21-3.58s4.25-1.27,6.68-1.27,4.71.42,6.73,1.26c2.02.84,3.76,2.03,5.21,3.58,1.45,1.55,2.58,3.41,3.38,5.59.8,2.18,1.2,4.6,1.2,7.25Zm-2.59,0c0-2.41-.33-4.58-1-6.51-.67-1.92-1.61-3.56-2.83-4.89-1.22-1.34-2.68-2.36-4.39-3.07-1.71-.71-3.61-1.06-5.7-1.06s-3.94.35-5.64,1.06c-1.7.71-3.17,1.73-4.4,3.07-1.23,1.34-2.19,2.97-2.86,4.89-.68,1.92-1.02,4.09-1.02,6.51s.34,4.6,1.02,6.52c.68,1.92,1.63,3.54,2.86,4.88,1.23,1.34,2.7,2.36,4.4,3.06,1.7.7,3.58,1.05,5.64,1.05s3.99-.35,5.7-1.05c1.71-.7,3.18-1.72,4.39-3.06,1.21-1.34,2.16-2.96,2.83-4.88s1-4.09,1-6.52Z"/>
      <path d="m427.55,70.63h2.08c.47,0,.77.22.91.66l8.73,28.45c.1.33.18.68.26,1.05.07.38.15.77.23,1.17.08-.41.16-.8.25-1.17.08-.38.18-.73.29-1.05l9.79-28.45c.06-.18.18-.33.34-.46.16-.13.36-.2.59-.2h.69c.23,0,.42.06.56.18.15.12.26.28.34.48l9.79,28.45c.11.33.22.67.31,1.03.09.36.18.74.26,1.15.08-.39.15-.77.22-1.14.06-.37.15-.71.24-1.04l8.73-28.45c.05-.18.16-.33.33-.46.17-.13.37-.2.6-.2h1.91l-10.89,34.62h-2.25l-10.23-30.04c-.13-.39-.25-.81-.34-1.25-.1.44-.21.86-.34,1.25l-10.25,30.04h-2.23l-10.91-34.62Z"/>
      <path d="m514.11,74.84c-.15.28-.36.42-.64.42-.21,0-.49-.15-.82-.45-.34-.3-.79-.64-1.36-1s-1.29-.71-2.15-1.02c-.86-.31-1.92-.46-3.18-.46s-2.37.18-3.33.54c-.96.36-1.76.85-2.41,1.47-.65.62-1.14,1.34-1.47,2.15-.34.82-.5,1.67-.5,2.57,0,1.17.25,2.15.75,2.91.5.77,1.16,1.42,1.97,1.96.82.54,1.74.99,2.78,1.36,1.04.37,2.1.73,3.2,1.09,1.09.36,2.16.75,3.2,1.19,1.04.43,1.96.98,2.78,1.63.82.65,1.47,1.46,1.97,2.41.5.95.75,2.14.75,3.56s-.25,2.82-.75,4.1c-.5,1.28-1.22,2.39-2.17,3.34s-2.1,1.69-3.47,2.24-2.94.82-4.7.82c-2.28,0-4.25-.4-5.9-1.21-1.65-.81-3.09-1.91-4.33-3.31l.69-1.08c.2-.24.42-.37.69-.37.15,0,.33.1.56.29.23.2.51.44.83.72.33.29.72.6,1.18.93.46.33.99.64,1.59.93.6.29,1.3.53,2.08.72s1.67.29,2.67.29c1.37,0,2.6-.21,3.68-.62,1.08-.42,1.99-.98,2.73-1.7.74-.72,1.31-1.57,1.7-2.56.39-.99.59-2.04.59-3.17,0-1.22-.25-2.23-.75-3.02-.5-.79-1.16-1.45-1.97-1.98-.82-.53-1.74-.97-2.78-1.33-1.04-.36-2.1-.71-3.2-1.05-1.09-.34-2.16-.73-3.2-1.15s-1.96-.97-2.78-1.63c-.82-.66-1.47-1.48-1.97-2.47s-.75-2.22-.75-3.71c0-1.16.22-2.27.66-3.35.44-1.08,1.09-2.03,1.94-2.85.85-.82,1.9-1.48,3.15-1.98s2.67-.75,4.28-.75c1.8,0,3.41.29,4.84.86,1.43.57,2.73,1.44,3.91,2.62l-.59,1.12Z"/>
      <path d="m548.91,105.25h-2.52v-16.59h-21.68v16.59h-2.52v-34.62h2.52v16.15h21.68v-16.15h2.52v34.62Z"/>
      <path d="m589.32,87.93c0,2.68-.4,5.1-1.2,7.28-.8,2.18-1.92,4.04-3.38,5.58-1.45,1.54-3.19,2.73-5.21,3.57-2.02.84-4.27,1.26-6.73,1.26s-4.66-.42-6.68-1.26c-2.02-.84-3.76-2.03-5.21-3.57-1.45-1.54-2.58-3.4-3.39-5.58-.81-2.18-1.21-4.6-1.21-7.28s.4-5.08,1.21-7.25c.81-2.18,1.94-4.04,3.39-5.58,1.45-1.54,3.19-2.74,5.21-3.58s4.25-1.27,6.68-1.27,4.71.42,6.73,1.26c2.02.84,3.76,2.03,5.21,3.58,1.45,1.55,2.58,3.41,3.38,5.59.8,2.18,1.2,4.6,1.2,7.25Zm-2.59,0c0-2.41-.33-4.58-1-6.51-.67-1.92-1.61-3.56-2.83-4.89-1.21-1.34-2.68-2.36-4.39-3.07-1.71-.71-3.61-1.06-5.7-1.06s-3.94.35-5.64,1.06c-1.71.71-3.17,1.73-4.4,3.07s-2.19,2.97-2.86,4.89c-.68,1.92-1.02,4.09-1.02,6.51s.34,4.6,1.02,6.52,1.63,3.54,2.86,4.88,2.7,2.36,4.4,3.06c1.7.7,3.58,1.05,5.64,1.05s3.99-.35,5.7-1.05c1.71-.7,3.18-1.72,4.39-3.06,1.22-1.34,2.16-2.96,2.83-4.88s1-4.09,1-6.52Z"/>
      <path d="m592.02,70.63h2.08c.47,0,.78.22.91.66l8.74,28.45c.1.33.18.68.26,1.05.07.38.15.77.23,1.17.08-.41.16-.8.24-1.17.08-.38.18-.73.29-1.05l9.79-28.45c.07-.18.18-.33.34-.46.16-.13.36-.2.59-.2h.69c.23,0,.42.06.56.18.15.12.26.28.34.48l9.79,28.45c.11.33.22.67.31,1.03.09.36.17.74.26,1.15.08-.39.15-.77.22-1.14.07-.37.15-.71.25-1.04l8.73-28.45c.05-.18.16-.33.33-.46.17-.13.37-.2.6-.2h1.91l-10.89,34.62h-2.25l-10.23-30.04c-.13-.39-.25-.81-.34-1.25-.1.44-.21.86-.34,1.25l-10.25,30.04h-2.23l-10.91-34.62Z"/>
      <path d="m647.73,105.25h-2.52v-34.62h2.52v34.62Z"/>
      <path d="m659.96,70.72c.13.06.27.18.42.38l22.41,30c-.05-.49-.07-.96-.07-1.42v-29.04h2.2v34.62h-1.2c-.38,0-.68-.16-.91-.49l-22.51-30.04c.05.49.07.95.07,1.39v29.14h-2.18v-34.62h1.22c.23,0,.41.03.54.09Z"/>
      <path d="m709.33,103.61c1.19,0,2.28-.06,3.25-.18s1.89-.31,2.73-.55c.84-.24,1.64-.54,2.4-.89.76-.35,1.52-.75,2.29-1.19v-9.32h-6.65c-.18,0-.33-.06-.45-.17-.12-.11-.18-.24-.18-.39v-1.37h9.57v12.31c-.86.6-1.76,1.14-2.69,1.61-.93.47-1.92.87-2.98,1.19-1.06.32-2.2.56-3.43.73-1.22.17-2.56.26-4.01.26-2.5,0-4.78-.42-6.84-1.26-2.06-.84-3.83-2.03-5.31-3.57-1.48-1.54-2.62-3.4-3.44-5.59-.82-2.19-1.22-4.62-1.22-7.29s.41-5.1,1.22-7.28,1.97-4.04,3.47-5.58c1.5-1.54,3.32-2.73,5.47-3.57,2.15-.84,4.55-1.26,7.21-1.26,1.32,0,2.54.09,3.66.27,1.12.18,2.16.44,3.12.8.96.35,1.86.78,2.69,1.3.83.51,1.63,1.1,2.4,1.77l-.66,1.08c-.15.24-.35.37-.61.37-.15,0-.29-.03-.42-.1-.24-.1-.6-.33-1.06-.69-.46-.36-1.09-.73-1.88-1.13-.79-.39-1.78-.74-2.97-1.05-1.19-.31-2.63-.46-4.33-.46-2.25,0-4.28.36-6.09,1.08-1.81.72-3.36,1.75-4.64,3.08-1.28,1.34-2.27,2.97-2.96,4.89-.69,1.93-1.04,4.09-1.04,6.48s.35,4.64,1.05,6.58c.7,1.94,1.68,3.58,2.95,4.93,1.26,1.35,2.78,2.38,4.55,3.1,1.77.72,3.72,1.08,5.86,1.08Z"/>
    </g>
    <g>
      <path class="cls-2" d="m833.39,131.21v-53.05c0-43.16-34.99-78.16-78.16-78.16h-431.69c-43.16,0-78.16,34.99-78.16,78.16v53.05H0v400h1080V131.21h-246.61Zm-543.23-53.05c0-18.41,14.98-33.38,33.38-33.38h431.69c18.41,0,33.38,14.98,33.38,33.38v53.05h-498.46v-53.05Zm744.84,408.05H45V176.21h990v310Z"/>
      <circle class="cls-1" cx="22.87" cy="154.21" r="9"/>
      <circle class="cls-1" cx="22.38" cy="508.36" r="9"/>
      <circle class="cls-1" cx="22.39" cy="457.77" r="9"/>
      <circle class="cls-1" cx="22.39" cy="407.17" r="9"/>
      <circle class="cls-1" cx="22.39" cy="356.58" r="9"/>
      <circle class="cls-1" cx="22.39" cy="305.99" r="9"/>
      <circle class="cls-1" cx="22.39" cy="255.39" r="9"/>
      <circle class="cls-1" cx="22.39" cy="204.8" r="9"/>
      <circle class="cls-1" cx="277.39" cy="53.21" r="9"/>
      <circle class="cls-1" cx="268.39" cy="154.39" r="9"/>
      <circle class="cls-1" cx="267.89" cy="104.8" r="9"/>
      <circle class="cls-1" cx="802.87" cy="53.21" r="9"/>
      <circle class="cls-1" cx="810.39" cy="154.39" r="9"/>
      <circle class="cls-1" cx="810.39" cy="104.8" r="9"/>
      <circle class="cls-1" cx="1056.87" cy="154.21" r="9"/>
      <circle class="cls-1" cx="1056.38" cy="508.36" r="9"/>
      <circle class="cls-1" cx="1056.39" cy="457.77" r="9"/>
      <circle class="cls-1" cx="1056.39" cy="407.17" r="9"/>
      <circle class="cls-1" cx="1056.39" cy="356.58" r="9"/>
      <circle class="cls-1" cx="1056.39" cy="305.99" r="9"/>
      <circle class="cls-1" cx="1056.39" cy="255.39" r="9"/>
      <circle class="cls-1" cx="1056.39" cy="204.8" r="9"/>
      <circle class="cls-1" cx="416.29" cy="508.53" r="9"/>
      <circle class="cls-1" cx="71.62" cy="508.04" r="9"/>
      <circle class="cls-1" cx="120.86" cy="508.05" r="9"/>
      <circle class="cls-1" cx="170.1" cy="508.05" r="9"/>
      <circle class="cls-1" cx="219.33" cy="508.05" r="9"/>
      <circle class="cls-1" cx="268.57" cy="508.05" r="9"/>
      <circle class="cls-1" cx="317.81" cy="508.05" r="9"/>
      <circle class="cls-1" cx="367.05" cy="508.05" r="9"/>
      <circle class="cls-1" cx="810.19" cy="508.53" r="9"/>
      <circle class="cls-1" cx="465.52" cy="508.04" r="9"/>
      <circle class="cls-1" cx="514.76" cy="508.05" r="9"/>
      <circle class="cls-1" cx="564" cy="508.05" r="9"/>
      <circle class="cls-1" cx="613.24" cy="508.05" r="9"/>
      <circle class="cls-1" cx="662.48" cy="508.05" r="9"/>
      <circle class="cls-1" cx="711.71" cy="508.05" r="9"/>
      <circle class="cls-1" cx="760.95" cy="508.05" r="9"/>
      <circle class="cls-1" cx="859.43" cy="508.04" r="9"/>
      <circle class="cls-1" cx="908.67" cy="508.05" r="9"/>
      <circle class="cls-1" cx="957.9" cy="508.05" r="9"/>
      <circle class="cls-1" cx="1007.14" cy="508.05" r="9"/>
      <circle class="cls-1" cx="416.29" cy="154.53" r="9"/>
      <circle class="cls-1" cx="71.62" cy="154.04" r="9"/>
      <circle class="cls-1" cx="120.86" cy="154.05" r="9"/>
      <circle class="cls-1" cx="170.1" cy="154.05" r="9"/>
      <circle class="cls-1" cx="219.33" cy="154.05" r="9"/>
      <circle class="cls-1" cx="317.81" cy="154.05" r="9"/>
      <circle class="cls-1" cx="367.05" cy="154.05" r="9"/>
      <circle class="cls-1" cx="465.52" cy="154.04" r="9"/>
      <circle class="cls-1" cx="514.76" cy="154.05" r="9"/>
      <circle class="cls-1" cx="564" cy="154.05" r="9"/>
      <circle class="cls-1" cx="613.24" cy="154.05" r="9"/>
      <circle class="cls-1" cx="662.48" cy="154.05" r="9"/>
      <circle class="cls-1" cx="711.71" cy="154.05" r="9"/>
      <circle class="cls-1" cx="760.95" cy="154.05" r="9"/>
      <circle class="cls-1" cx="859.43" cy="154.04" r="9"/>
      <circle class="cls-1" cx="908.67" cy="154.05" r="9"/>
      <circle class="cls-1" cx="957.9" cy="154.05" r="9"/>
      <circle class="cls-1" cx="1007.14" cy="154.05" r="9"/>
      <ellipse class="cls-1" cx="416.29" cy="22.42" rx="9" ry="9.52"/>
      <ellipse class="cls-1" cx="313.81" cy="25.42" rx="9" ry="9.52"/>
      <ellipse class="cls-1" cx="367.05" cy="22.42" rx="9" ry="9.52"/>
      <ellipse class="cls-1" cx="465.52" cy="22.42" rx="9" ry="9.52"/>
      <ellipse class="cls-1" cx="514.76" cy="22.42" rx="9" ry="9.52"/>
      <ellipse class="cls-1" cx="564" cy="22.42" rx="9" ry="9.52"/>
      <ellipse class="cls-1" cx="613.24" cy="22.42" rx="9" ry="9.52"/>
      <ellipse class="cls-1" cx="662.48" cy="22.42" rx="9" ry="9.52"/>
      <ellipse class="cls-1" cx="711.71" cy="22.42" rx="9" ry="9.52"/>
      <ellipse class="cls-1" cx="764.95" cy="25.42" rx="9" ry="9.52"/>
    </g>
  </g>
</svg>