<?xml version="1.0" encoding="UTF-8"?>
<svg id="Layer_2" data-name="Layer 2" xmlns="http://www.w3.org/2000/svg" viewBox="0 0 323.28 244">
  <defs>
    <style>
      .cls-1 {
        fill: #ecc76a;
      }

      .cls-2 {
        fill: #bd332b;
      }
    </style>
  </defs>
  <g id="Layer_1-2" data-name="Layer 1">
    <g>
      <path d="m102.9,33.78s.09.06.14.12l7.29,9.76c-.02-.16-.02-.31-.02-.46v-9.45h.72v11.26h-.39c-.12,0-.22-.05-.29-.16l-7.32-9.78c.02.16.02.31.02.45v9.48h-.71v-11.26h.4c.07,0,.13,0,.18.03Z"/>
      <path d="m124.17,39.38c0,.87-.13,1.66-.39,2.37-.26.71-.63,1.31-1.1,1.82-.47.5-1.04.89-1.7,1.16-.66.27-1.39.41-2.19.41s-1.52-.14-2.17-.41c-.66-.27-1.22-.66-1.7-1.16-.47-.5-.84-1.11-1.1-1.82-.26-.71-.39-1.5-.39-2.37s.13-1.65.39-2.36c.26-.71.63-1.31,1.1-1.82.47-.5,1.04-.89,1.7-1.17s1.38-.41,2.17-.41,1.53.14,2.19.41c.66.27,1.22.66,1.7,1.17.47.5.84,1.11,1.1,1.82.26.71.39,1.5.39,2.36Zm-.84,0c0-.79-.11-1.49-.33-2.12-.22-.63-.52-1.16-.92-1.59-.4-.44-.87-.77-1.43-1-.56-.23-1.18-.35-1.85-.35s-1.28.12-1.84.35c-.55.23-1.03.56-1.43,1-.4.44-.71.97-.93,1.59-.22.63-.33,1.33-.33,2.12s.11,1.5.33,2.12c.22.62.53,1.15.93,1.59.4.44.88.77,1.43,1,.55.23,1.17.34,1.84.34s1.3-.11,1.85-.34c.56-.23,1.03-.56,1.43-1,.4-.44.7-.96.92-1.59s.33-1.33.33-2.12Z"/>
      <path d="m125.05,33.75h.68c.15,0,.25.07.29.21l2.84,9.26c.03.11.06.22.08.34.02.12.05.25.08.38.03-.13.05-.26.08-.38.03-.12.06-.24.1-.34l3.18-9.26c.02-.06.06-.11.11-.15.05-.04.12-.06.19-.06h.22c.07,0,.14.02.18.06.05.04.08.09.11.16l3.18,9.26c.04.11.07.22.1.33.03.12.06.24.08.37.03-.13.05-.25.07-.37.02-.12.05-.23.08-.34l2.84-9.26c.02-.06.05-.11.11-.15.06-.04.12-.06.2-.06h.62l-3.54,11.26h-.73l-3.33-9.78c-.04-.13-.08-.26-.11-.41-.03.14-.07.28-.11.41l-3.34,9.78h-.72l-3.55-11.26Z"/>
      <path d="m153.21,35.12c-.05.09-.12.14-.21.14-.07,0-.16-.05-.27-.15-.11-.1-.26-.21-.44-.33s-.42-.23-.7-.33c-.28-.1-.62-.15-1.03-.15s-.77.06-1.08.18c-.31.12-.57.28-.78.48-.21.2-.37.44-.48.7-.11.27-.16.54-.16.84,0,.38.08.7.24.95.16.25.38.46.64.64.27.18.57.32.9.44.34.12.68.24,1.04.35.36.12.7.25,1.04.39.34.14.64.32.9.53.27.21.48.47.64.78.16.31.24.7.24,1.16s-.08.92-.24,1.33c-.16.42-.4.78-.7,1.09s-.68.55-1.13.73-.96.27-1.53.27c-.74,0-1.38-.13-1.92-.39-.54-.26-1.01-.62-1.41-1.08l.22-.35c.06-.08.14-.12.22-.12.05,0,.11.03.18.1.07.06.16.14.27.23.11.09.23.19.38.3.15.11.32.21.52.3.2.09.42.17.68.23s.54.1.87.1c.45,0,.85-.07,1.2-.2.35-.14.65-.32.89-.55.24-.23.43-.51.55-.83.13-.32.19-.66.19-1.03,0-.4-.08-.73-.24-.98-.16-.26-.38-.47-.64-.64-.27-.17-.57-.32-.9-.43-.34-.12-.68-.23-1.04-.34-.36-.11-.7-.24-1.04-.37s-.64-.31-.9-.53c-.27-.21-.48-.48-.64-.8s-.24-.72-.24-1.21c0-.38.07-.74.22-1.09.14-.35.35-.66.63-.93.28-.27.62-.48,1.02-.64s.87-.24,1.39-.24c.58,0,1.11.09,1.57.28.46.19.89.47,1.27.85l-.19.37Z"/>
      <path d="m164.54,45.02h-.82v-5.4h-7.05v5.4h-.82v-11.26h.82v5.25h7.05v-5.25h.82v11.26Z"/>
      <path d="m177.69,39.38c0,.87-.13,1.66-.39,2.37-.26.71-.63,1.31-1.1,1.82-.47.5-1.04.89-1.7,1.16-.66.27-1.39.41-2.19.41s-1.52-.14-2.17-.41c-.66-.27-1.22-.66-1.7-1.16-.47-.5-.84-1.11-1.1-1.82-.26-.71-.39-1.5-.39-2.37s.13-1.65.39-2.36c.26-.71.63-1.31,1.1-1.82.47-.5,1.04-.89,1.7-1.17s1.38-.41,2.17-.41,1.53.14,2.19.41c.66.27,1.22.66,1.7,1.17.47.5.84,1.11,1.1,1.82.26.71.39,1.5.39,2.36Zm-.84,0c0-.79-.11-1.49-.33-2.12-.22-.63-.52-1.16-.92-1.59-.4-.44-.87-.77-1.43-1-.56-.23-1.18-.35-1.85-.35s-1.28.12-1.84.35c-.55.23-1.03.56-1.43,1s-.71.97-.93,1.59c-.22.63-.33,1.33-.33,2.12s.11,1.5.33,2.12.53,1.15.93,1.59.88.77,1.43,1c.55.23,1.17.34,1.84.34s1.3-.11,1.85-.34c.56-.23,1.03-.56,1.43-1,.4-.44.7-.96.92-1.59s.33-1.33.33-2.12Z"/>
      <path d="m178.56,33.75h.68c.15,0,.25.07.29.21l2.84,9.26c.03.11.06.22.08.34.02.12.05.25.08.38.03-.13.05-.26.08-.38.03-.12.06-.24.1-.34l3.18-9.26c.02-.06.06-.11.11-.15.05-.04.12-.06.19-.06h.22c.07,0,.14.02.18.06.05.04.08.09.11.16l3.18,9.26c.04.11.07.22.1.33.03.12.06.24.08.37.03-.13.05-.25.07-.37.02-.12.05-.23.08-.34l2.84-9.26c.02-.06.05-.11.11-.15.06-.04.12-.06.2-.06h.62l-3.54,11.26h-.73l-3.33-9.78c-.04-.13-.08-.26-.11-.41-.03.14-.07.28-.11.41l-3.34,9.78h-.72l-3.55-11.26Z"/>
      <path d="m196.69,45.02h-.82v-11.26h.82v11.26Z"/>
      <path d="m200.67,33.78s.09.06.14.12l7.29,9.76c-.02-.16-.02-.31-.02-.46v-9.45h.72v11.26h-.39c-.12,0-.22-.05-.29-.16l-7.32-9.78c.02.16.02.31.02.45v9.48h-.71v-11.26h.4c.07,0,.13,0,.18.03Z"/>
      <path d="m216.74,44.49c.39,0,.74-.02,1.06-.06s.61-.1.89-.18c.27-.08.53-.18.78-.29.25-.11.49-.24.74-.39v-3.03h-2.17c-.06,0-.11-.02-.15-.06-.04-.04-.06-.08-.06-.13v-.45h3.11v4c-.28.2-.57.37-.88.53-.3.15-.63.28-.97.39-.35.1-.72.18-1.11.24-.4.06-.83.08-1.31.08-.81,0-1.55-.14-2.23-.41-.67-.27-1.25-.66-1.73-1.16-.48-.5-.85-1.11-1.12-1.82-.27-.71-.4-1.5-.4-2.37s.13-1.66.4-2.37.64-1.31,1.13-1.82c.49-.5,1.08-.89,1.78-1.16.7-.27,1.48-.41,2.34-.41.43,0,.83.03,1.19.09.36.06.7.14,1.02.26.31.11.61.25.88.42.27.17.53.36.78.58l-.22.35c-.05.08-.11.12-.2.12-.05,0-.09-.01-.14-.03-.08-.03-.2-.11-.35-.22-.15-.12-.36-.24-.61-.37-.26-.13-.58-.24-.97-.34-.39-.1-.86-.15-1.41-.15-.73,0-1.39.12-1.98.35-.59.23-1.09.57-1.51,1-.42.44-.74.97-.96,1.59-.23.63-.34,1.33-.34,2.11s.11,1.51.34,2.14c.23.63.55,1.17.96,1.6.41.44.9.77,1.48,1.01.58.23,1.21.35,1.91.35Z"/>
    </g>
    <g>
      <path class="cls-2" d="m253.22,55.75v-18.97c0-20.31-16.47-36.78-36.78-36.78h-109.16c-20.31,0-36.78,16.47-36.78,36.78v18.97H0v188.25h323.28V55.75h-70.06Zm-161.66-18.97c0-8.66,7.05-15.71,15.71-15.71h109.16c8.66,0,15.71,7.05,15.71,15.71v18.97H91.56v-18.97Zm210.54,186.04H21.18V76.93h280.92v145.89Z"/>
      <circle class="cls-1" cx="10.76" cy="66.57" r="4.24"/>
      <circle class="cls-1" cx="10.53" cy="233.25" r="4.24"/>
      <circle class="cls-1" cx="10.54" cy="209.44" r="4.24"/>
      <circle class="cls-1" cx="10.54" cy="185.63" r="4.24"/>
      <circle class="cls-1" cx="10.54" cy="161.82" r="4.24"/>
      <circle class="cls-1" cx="10.54" cy="138.01" r="4.24"/>
      <circle class="cls-1" cx="10.54" cy="114.2" r="4.24"/>
      <circle class="cls-1" cx="10.54" cy="90.38" r="4.24"/>
      <circle class="cls-1" cx="84.55" cy="25.04" r="4.24"/>
      <circle class="cls-1" cx="126.31" cy="66.66" r="4.24"/>
      <circle class="cls-1" cx="80.08" cy="45.32" r="4.24"/>
      <circle class="cls-1" cx="238.85" cy="25.04" r="4.24"/>
      <circle class="cls-1" cx="242.33" cy="45.32" r="4.24"/>
      <circle class="cls-1" cx="312.16" cy="233.25" r="4.24"/>
      <circle class="cls-1" cx="312.16" cy="209.44" r="4.24"/>
      <circle class="cls-1" cx="312.16" cy="185.63" r="4.24"/>
      <circle class="cls-1" cx="312.16" cy="161.82" r="4.24"/>
      <circle class="cls-1" cx="312.16" cy="138.01" r="4.24"/>
      <circle class="cls-1" cx="312.16" cy="114.2" r="4.24"/>
      <circle class="cls-1" cx="312.16" cy="90.38" r="4.24"/>
      <circle class="cls-1" cx="195.91" cy="233.33" r="4.24"/>
      <circle class="cls-1" cx="33.71" cy="233.1" r="4.24"/>
      <circle class="cls-1" cx="56.88" cy="233.1" r="4.24"/>
      <circle class="cls-1" cx="80.05" cy="233.1" r="4.24"/>
      <circle class="cls-1" cx="103.22" cy="233.1" r="4.24"/>
      <circle class="cls-1" cx="126.4" cy="233.1" r="4.24"/>
      <circle class="cls-1" cx="149.57" cy="233.1" r="4.24"/>
      <circle class="cls-1" cx="172.74" cy="233.1" r="4.24"/>
      <circle class="cls-1" cx="219.09" cy="233.1" r="4.24"/>
      <circle class="cls-1" cx="242.26" cy="233.1" r="4.24"/>
      <circle class="cls-1" cx="265.43" cy="233.1" r="4.24"/>
      <circle class="cls-1" cx="288.61" cy="233.1" r="4.24"/>
      <circle class="cls-1" cx="195.91" cy="66.73" r="4.24"/>
      <circle class="cls-1" cx="33.71" cy="66.49" r="4.24"/>
      <circle class="cls-1" cx="56.88" cy="66.5" r="4.24"/>
      <circle class="cls-1" cx="80.05" cy="66.5" r="4.24"/>
      <circle class="cls-1" cx="103.22" cy="66.5" r="4.24"/>
      <circle class="cls-1" cx="149.57" cy="66.5" r="4.24"/>
      <circle class="cls-1" cx="172.74" cy="66.5" r="4.24"/>
      <circle class="cls-1" cx="219.09" cy="66.49" r="4.24"/>
      <circle class="cls-1" cx="242.33" cy="66.5" r="4.24"/>
      <circle class="cls-1" cx="265.43" cy="66.5" r="4.24"/>
      <circle class="cls-1" cx="288.61" cy="66.5" r="4.24"/>
      <circle class="cls-1" cx="311.78" cy="66.5" r="4.24"/>
      <ellipse class="cls-1" cx="195.91" cy="10.55" rx="4.24" ry="4.48"/>
      <ellipse class="cls-1" cx="101.69" cy="11.96" rx="4.24" ry="4.48"/>
      <ellipse class="cls-1" cx="126.74" cy="10.55" rx="4.24" ry="4.48"/>
      <ellipse class="cls-1" cx="149.43" cy="10.55" rx="4.24" ry="4.48"/>
      <ellipse class="cls-1" cx="172.61" cy="10.55" rx="4.24" ry="4.48"/>
      <ellipse class="cls-1" cx="195.78" cy="10.55" rx="4.24" ry="4.48"/>
      <ellipse class="cls-1" cx="221.01" cy="11.96" rx="4.24" ry="4.48"/>
    </g>
  </g>
</svg>