<?xml version="1.0" encoding="UTF-8"?>
<svg id="Layer_2" data-name="Layer 2" xmlns="http://www.w3.org/2000/svg" viewBox="0 0 307.46 216">
  <defs>
    <style>
      .cls-1 {
        fill: #fff8ab;
      }

      .cls-2 {
        fill: #ffeb86;
      }

      .cls-3 {
        fill: #ffcb38;
      }
    </style>
  </defs>
  <g id="Layer_1-2" data-name="Layer 1">
    <g>
      <path class="cls-1" d="m3.43,144.54s-15.79-25.58,21.62-34.43c0,0-33.42-58.04,9.86-83.62,43.28-25.58,55.09-3.93,55.09-3.93,0,0,3.93,5.9,11.8-5.9,7.87-11.8,49.19-33.45,100.34,5.9,0,0,1.97,7.87,21.64,1.97s60.99-3.93,72.8,23.61l-21.64,45.25-21.64,27.54-16.55,23.61-34.6,15.74-31.48,1.97-43.28,1.97-51.15-11.8-39.35-1.97-33.45-5.9Z"/>
      <path class="cls-2" d="m160.82,140.61s19.86,17.71,51.25,0c31.39-17.71,37.29-59.02,37.29-74.76,0,0,32.59-15.85,31.05-35.47,0,0,37.81,7.92,24.04,70.88,0,0-6.03,31.48-48.27,31.48,0,0,22.69,41.32-10.76,64.93-33.45,23.61-57.06,5.9-57.06,5.9,0,0-11.8,15.74-39.35,11.8s-29.51-21.64-29.51-31.48c0,0-31.48,27.54-74.76,17.71s-33.45-39.35-33.45-39.35c0,0,.05-5.49-.96-7.67S-1.22,142.57.12,132.74s9.21,5.9,17.08,5.9,27.54,7.87,39.35-1.97,53.12,13.77,59.02,13.77,27.54,5.9,45.25-9.84Z"/>
      <path class="cls-3" d="m82.13,132.74s47.22-33.45,92.47-5.9c0,0,3.49,2.89,4.7-2.49s21.98-26.65,59.24-14.23c20.66,6.89,8.85-81.65-38.36-67.88,0,0-16.72,4.92-35.41,23.61-11.47,11.47-9.84,0-29.51-1.97-9.79-.98-23.61,0-37.38,11.8-13.77,11.8-27.54,29.51-15.74,57.06Z"/>
    </g>
  </g>
</svg>