<?xml version="1.0" encoding="UTF-8"?>
<svg id="Layer_2" data-name="Layer 2" xmlns="http://www.w3.org/2000/svg" viewBox="0 0 299.8 216">
  <defs>
    <style>
      .cls-1 {
        fill: #fff8ab;
      }

      .cls-2 {
        fill: #ffeb86;
      }

      .cls-3 {
        fill: #ffcb38;
      }
    </style>
  </defs>
  <g id="Layer_1-2" data-name="Layer 1">
    <g>
      <path class="cls-1" d="m47.05,66.87s-4.01-38.08,36.5-42.43c2.95-.32,5.95-.15,8.83.54,6.37,1.53,17.57,5.61,23.26,16.06.78,1.43,2.82,1.36,3.49-.13,3.09-6.84,11.79-18.92,34.77-18.92,21.38,0,24.7,9.5,24.54,15.83-.04,1.67,1.91,2.59,3.19,1.51,5.63-4.76,16.24-11.69,27.83-8.79,17.1,4.27,9.27,21.37,22.8,18.17,13.53-3.21,0-21.45,0-21.45,0,0-12.11-20.22,13.53-26.63,25.65-6.41,88.2,37.82,29.14,92.64l.78,24.9-25.65,29.92-68.39,8.55-106.85-6.41-34.19-34.19,6.41-49.15Z"/>
      <path class="cls-2" d="m50.26,48.7s10.69,8.55,21.37,8.55-49.15,44.88-6.41,74.8c42.74,29.92,91.89-8.55,91.89-8.55,0,0,42.74,36.33,74.8,14.96,32.06-21.37,8.55-47.02,8.55-47.02l40.6,2.14s34.74,7.14,9.62,52.36c-10.69,19.23-57.79,23.11-67.02,19.71-2.35-.87-4.65,1.33-3.94,3.74,3.45,11.83,5.87,34.58-22,43.87-38.47,12.82-66.25-23.51-66.25-23.51,0,0-53.43,44.88-96.17,8.55-35.34-30.04-3.58-55.48,8.48-63.4,1.84-1.21,1.82-3.89-.05-5.04-14.09-8.62-57.42-38.12-39.42-65.13,0,0,10.69-17.1,40.6-6.41l5.34-9.62Z"/>
      <path class="cls-3" d="m111.17,69.01s-27.78,4.27-29.92,32.06c-2.14,27.78,12.82,19.23,17.1,17.1s17.1-12.82,34.19-6.41c17.1,6.41,55.56,14.96,66.25,6.41,10.69-8.55,17.1-19.23,4.27-32.06,0,0-14.96-6.41-21.37-2.14,0,0,4.27-29.92-21.37-27.78s-29.92,14.96-29.92,14.96c0,0-10.69-4.27-19.23-2.14Z"/>
    </g>
  </g>
</svg>